<?xml version="1.0" standalone="no"?>
<!DOCTYPE svg PUBLIC "-//W3C//DTD SVG 1.1//EN" "http://www.w3.org/Graphics/SVG/1.1/DTD/svg11.dtd" >
<svg xmlns="http://www.w3.org/2000/svg">
<metadata></metadata>
<defs>
<font id="pt_monoregular" horiz-adv-x="1228" >
<font-face units-per-em="2048" ascent="1638" descent="-410" />
<missing-glyph horiz-adv-x="500" />
<glyph />
<glyph />
<glyph unicode="&#xd;" />
<glyph unicode=" " />
<glyph unicode="!" d="M530 1434h170v-711l-34 -361h-101l-35 361v711zM496 94q0 55 31.5 87t84.5 32q55 0 88 -31.5t33 -87.5q0 -53 -32.5 -86t-88.5 -33q-53 0 -84.5 33t-31.5 86z" />
<glyph unicode="&#x22;" d="M735 1434h180l-63 -621h-117v621zM311 1434h181l-64 -621h-117v621z" />
<glyph unicode="#" d="M700 461h-297l-79 -342h-142l80 342h-201l29 131h203l63 268h-192l29 131h194l78 324h141l-78 -324h297l78 324h141l-77 -324h198l-32 -131h-197l-64 -268h191l-33 -131h-188l-80 -342h-141zM434 592h297l64 268h-297z" />
<glyph unicode="$" d="M539 -25q-113 2 -200 19.5t-140 46.5l55 149q41 -25 111.5 -44t173.5 -23v553q-61 31 -122 65.5t-108 82.5t-75.5 114t-28.5 156q0 147 83 241.5t251 116.5v186h139v-180q104 -4 170.5 -19.5t120.5 -39.5l-49 -144q-41 20 -98.5 36t-143.5 20v-506q63 -33 126.5 -71 t114 -87t81 -114.5t30.5 -153.5q0 -160 -89 -263.5t-263 -131.5v-189h-139v180zM860 365q0 49 -17.5 88t-46 69.5t-67.5 55t-84 47.5v-498q94 16 154.5 74t60.5 164zM375 1104q0 -88 56 -143.5t140 -100.5v449q-109 -12 -152.5 -71.5t-43.5 -133.5z" />
<glyph unicode="%" d="M57 1110q0 96 23.5 162.5t60.5 107.5t84 59.5t94 18.5t94.5 -16.5t84.5 -56t60.5 -106.5t23.5 -169q0 -100 -23.5 -166.5t-60.5 -106.5t-84 -56.5t-95 -16.5q-47 0 -94 16.5t-84 56.5t-60.5 106.5t-23.5 166.5zM201 1110q0 -121 37.5 -169t80.5 -48q23 0 44.5 9t38 34 t26.5 66.5t10 107.5q0 63 -10 105t-26.5 68t-38 36t-44.5 10q-47 0 -82.5 -48t-35.5 -171zM645 346q0 96 23.5 162.5t60.5 107.5t84 59.5t94 18.5t94.5 -16t84 -56t60 -106.5t23.5 -169.5q0 -100 -23.5 -166.5t-60 -106.5t-84 -56.5t-94.5 -16.5t-94 16.5t-84 56.5 t-60.5 106.5t-23.5 166.5zM788 346q0 -121 38 -169t81 -48q23 0 44.5 8t38 32t26.5 67t10 110q0 63 -10 105.5t-26.5 68t-38 35.5t-44.5 10t-44 -10t-37.5 -34.5t-27 -66.5t-10.5 -108zM905 1470l117 -59l-713 -1440l-116 54z" />
<glyph unicode="&#x26;" d="M61 424q0 135 76 258t211 207q-49 74 -85 147.5t-36 159.5q0 49 16.5 96t52.5 84t92 59.5t136 22.5q84 0 141.5 -21.5t92.5 -56t50 -77.5t15 -89q0 -86 -66.5 -177t-209.5 -175q33 -59 77 -121.5t93 -124t100 -122t103 -111.5q23 33 40 80t28 98t16.5 102.5t5.5 94.5h145 q-6 -129 -41 -257t-102 -216q29 -35 65.5 -69t87.5 -66v-175q-109 53 -247 191q-37 -37 -75 -71t-85 -60.5t-107.5 -43t-140.5 -16.5q-84 0 -164 28t-143.5 83t-102.5 139t-39 199zM821 268q-59 59 -116.5 129t-109.5 139.5t-96 134t-75 113.5q-111 -84 -155 -170t-44 -184 q0 -80 30 -138.5t75 -97t99 -57t106 -18.5q102 0 170.5 46t115.5 103zM387 1196q0 -61 25.5 -121.5t66.5 -120.5q109 70 151 127.5t42 100.5q0 66 -32 106.5t-110 40.5q-74 0 -108.5 -37t-34.5 -96z" />
<glyph unicode="'" d="M535 1434h180l-64 -621h-116v621z" />
<glyph unicode="(" d="M1016 -451q-180 20 -326.5 89t-249 187t-159 286t-56.5 387q0 215 55.5 384t157 288.5t243.5 191.5t314 96l23 -133q-154 -33 -270.5 -92t-196.5 -157.5t-121 -240t-41 -337.5q0 -199 50 -343.5t138.5 -242.5t208 -152.5t258.5 -72.5z" />
<glyph unicode=")" d="M254 1458q180 -20 326.5 -89t249 -187.5t158.5 -286.5t56 -385q0 -215 -56 -384t-157.5 -289t-243 -191.5t-313.5 -96.5l-22 134q154 33 270.5 92t196.5 157.5t121 239.5t41 338q0 199 -50.5 343t-138.5 242.5t-207.5 153t-259.5 72.5z" />
<glyph unicode="*" d="M436 1462l182 -358l177 360l141 -75l-248 -347l416 31v-166l-404 33l238 -330l-137 -80l-191 367l-180 -367l-147 80l247 330l-405 -33v166l405 -35l-235 344z" />
<glyph unicode="+" d="M98 766h443v453h147v-453h442v-148h-442v-452h-147v452h-443v148z" />
<glyph unicode="," d="M469 113q0 61 40 99t103 38q78 0 121 -54.5t43 -152.5q0 -80 -26.5 -140.5t-66.5 -102.5t-86 -67.5t-85 -37.5l-51 80q74 29 127 82t53 129q-29 -6 -45 -6q-59 0 -93 33.5t-34 99.5z" />
<glyph unicode="-" d="M264 666h701v-152h-701v152z" />
<glyph unicode="." d="M477 113q0 66 37 101.5t98 35.5q66 0 103 -36t37 -101q0 -59 -37 -98.5t-103 -39.5q-61 0 -98 39.5t-37 98.5z" />
<glyph unicode="/" d="M924 1458l129 -57l-748 -1688l-129 58z" />
<glyph unicode="0" d="M113 717q0 174 30.5 312t92 233.5t155.5 145.5t223 50q137 0 232.5 -49t155 -143.5t86 -232.5t26.5 -316q0 -174 -30.5 -312.5t-92 -233.5t-156 -145.5t-223.5 -50.5q-135 0 -230 54.5t-155.5 153t-87 234.5t-26.5 300zM946 717q0 109 -12 207l-608 -555 q35 -117 104.5 -186.5t181.5 -69.5q180 0 257 149.5t77 454.5zM283 717q0 -51 3 -98.5t7 -92.5l610 553q-35 111 -103.5 176.5t-185.5 65.5q-182 0 -256.5 -150.5t-74.5 -453.5z" />
<glyph unicode="1" d="M260 147h322v1078l-328 -230l-80 117l451 322h114v-1287h316v-147h-795v147z" />
<glyph unicode="2" d="M1024 1071q0 -188 -178 -419.5t-498 -504.5h721v-147h-909v147q39 37 106.5 96.5t145 132.5t158.5 156.5t146.5 172t106.5 176.5t41 170q0 123 -64.5 193.5t-193.5 70.5q-111 0 -186.5 -24.5t-136.5 -71.5l-70 112q92 66 195.5 96.5t226.5 30.5q193 0 291 -104.5 t98 -282.5z" />
<glyph unicode="3" d="M508 117q82 0 150.5 21.5t119.5 60.5t80 94t29 123q0 141 -99.5 201.5t-267.5 60.5h-131v98l404 510h-613v148h809v-148l-403 -473h32q94 0 172 -26.5t135.5 -75.5t89.5 -119t32 -158q0 -111 -43 -196.5t-117 -144t-173.5 -88.5t-211.5 -30q-104 0 -181 15.5t-141 38.5 l41 143q53 -25 125 -40t162 -15z" />
<glyph unicode="4" d="M1188 446h-277v-446h-159v446h-662v119l686 869h135v-852h277v-136zM752 1178l-473 -596h473v596z" />
<glyph unicode="5" d="M524 119q78 0 143.5 19.5t111.5 59.5t72 99t26 139q0 147 -105.5 224t-288.5 77l-192 -10v707h702v-148h-549v-416l103 4q227 0 358 -110.5t131 -314.5q0 -115 -40 -203t-109.5 -148.5t-164.5 -91.5t-208 -31q-61 0 -116.5 9.5t-100.5 22.5t-79 28.5t-48 27.5l66 134 q35 -20 106 -49t182 -29z" />
<glyph unicode="6" d="M1104 432q0 -88 -32 -170t-93 -145.5t-151.5 -102.5t-209.5 -39q-111 0 -200.5 35t-155 99.5t-101.5 158.5t-36 211q0 193 56.5 365t157.5 303t241.5 213t308.5 98l29 -131q-129 -16 -237 -75.5t-187.5 -147.5t-130 -194.5t-64.5 -217.5q16 27 48 55.5t76 50t98 36 t118 14.5q109 0 195 -30t146 -84t92 -131t32 -171zM936 416q0 143 -80 219t-246 76q-59 0 -110 -14.5t-92 -38t-72 -54.5t-47 -61q-4 -29 -4 -45.5v-38.5q0 -61 20.5 -124t62.5 -112t105.5 -79.5t149.5 -30.5q70 0 127 24.5t99 65.5t64.5 96.5t22.5 116.5z" />
<glyph unicode="7" d="M254 0l627 1286h-740v148h906v-134l-625 -1300h-168z" />
<glyph unicode="8" d="M154 348q0 248 301 400q-57 31 -106.5 63.5t-85.5 73.5t-56.5 94t-20.5 123q0 76 31 141.5t88 112.5t139 74.5t183 27.5q94 0 170.5 -24.5t131 -68.5t83 -103.5t28.5 -126.5q0 -117 -58 -214.5t-187 -177.5q59 -31 110 -65.5t89 -77.5t59.5 -97t21.5 -124 q0 -86 -30.5 -161t-91 -128t-148.5 -84t-205 -31q-109 0 -192.5 31t-140 82t-85 118.5t-28.5 141.5zM913 369q0 59 -27.5 105t-73.5 83t-105.5 67.5t-122.5 61.5q-147 -72 -210 -158t-63 -161q0 -51 19.5 -97.5t57.5 -81t94.5 -55t129.5 -20.5q59 0 113.5 16t96.5 48 t66.5 80.5t24.5 111.5zM346 1108q0 -57 26.5 -102t70.5 -81t101.5 -66t121.5 -58q109 72 163 143.5t54 157.5q0 51 -21.5 91t-57.5 68.5t-83 44t-98 15.5q-66 0 -117 -18.5t-86 -49t-54.5 -68.5t-19.5 -77z" />
<glyph unicode="9" d="M125 1001q0 94 30.5 177.5t93 145.5t155 98t214.5 36q115 0 205 -37t152.5 -103.5t95.5 -161.5t33 -212q0 -229 -57.5 -403t-160 -295t-242.5 -188.5t-304 -82.5l-31 129q135 14 241.5 65.5t184.5 131.5t127 184.5t68 223.5q-33 -35 -67 -58.5t-74.5 -38t-90 -20.5 t-112.5 -6q-94 0 -178 28.5t-146.5 83t-99.5 131t-37 172.5zM293 1018q0 -147 89 -221t236 -74q117 0 202 36t120 89q4 29 4 46v40q0 72 -19.5 141.5t-60.5 124.5t-105.5 89t-154.5 34q-147 0 -229 -80t-82 -225z" />
<glyph unicode=":" d="M477 918q0 66 37 101.5t98 35.5q66 0 103 -36t37 -101q0 -59 -37 -98.5t-103 -39.5q-61 0 -98 39.5t-37 98.5zM477 113q0 66 37 101.5t98 35.5q66 0 103 -36t37 -101q0 -59 -37 -98.5t-103 -39.5q-61 0 -98 39.5t-37 98.5z" />
<glyph unicode=";" d="M469 113q0 61 40 99t103 38q78 0 121 -54.5t43 -152.5q0 -80 -26.5 -140.5t-66.5 -102.5t-86 -67.5t-85 -37.5l-51 80q74 29 127 82t53 129q-29 -6 -45 -6q-59 0 -93 33.5t-34 99.5zM487 918q0 66 37 101.5t98 35.5q66 0 103 -36t37 -101q0 -59 -37 -98.5t-103 -39.5 q-61 0 -98 39.5t-37 98.5z" />
<glyph unicode="&#x3c;" d="M92 625v59l965 588l78 -127l-813 -481l815 -474l-78 -122z" />
<glyph unicode="=" d="M139 936h951v-148h-951v148zM139 598h951v-148h-951v148z" />
<glyph unicode="&#x3e;" d="M170 68l-78 122l815 474l-813 481l78 127l965 -588v-59z" />
<glyph unicode="?" d="M475 362q-2 10 -2 22.5v23.5q0 86 32 147t79 109.5t101 87.5t101.5 83t79 97t31.5 127q0 39 -18.5 84t-56.5 84t-98 63.5t-144 24.5q-68 0 -122.5 -16.5t-98.5 -41t-79.5 -54t-64.5 -56.5l-104 94q86 109 222 163t312 54q106 0 186 -34.5t132.5 -89t78 -121t25.5 -130.5 q0 -98 -34 -164.5t-85 -118.5t-109.5 -94t-109.5 -90.5t-85 -107.5t-34 -146h-135zM434 94q0 55 32 87t85 32q55 0 88 -31.5t33 -87.5q0 -53 -33 -86t-88 -33q-53 0 -85 33t-32 86z" />
<glyph unicode="@" d="M1079 670q0 -78 -4 -166t-6 -176q0 -102 12 -195h138v-133h-273l-18 154h-10q-12 -18 -31 -47t-50.5 -56.5t-83 -48t-128.5 -20.5q-66 0 -122.5 20.5t-97 58t-64.5 91t-24 120.5q0 104 45.5 174t125 107t189 43t238.5 -16q6 102 -2 176.5t-36.5 123t-81 72t-133.5 23.5 q-86 0 -171 -43t-151 -126t-106.5 -203t-40.5 -271q0 -162 44 -281t117.5 -196.5t171 -115.5t205.5 -38q45 0 97.5 11.5t102.5 31.5t94 50t77 67l84 -109q-86 -92 -208 -140t-263 -48q-119 0 -238 40t-215 129t-156.5 233.5t-60.5 352.5q0 203 57.5 351.5t149.5 247 t209 146.5t235 48q106 0 180 -26.5t119 -81t64.5 -137t19.5 -197.5zM666 119q57 0 100 18.5t71.5 47t47 62.5t30.5 64v144q-96 18 -174.5 18t-136 -19.5t-88.5 -60.5t-31 -106q0 -68 44.5 -118t136.5 -50z" />
<glyph unicode="A" d="M883 397h-551l-131 -397h-168l479 1434h201l483 -1434h-178zM385 545h451l-211 674h-25z" />
<glyph unicode="B" d="M1069 1106q0 -51 -16.5 -104.5t-49 -99.5t-84 -81t-120.5 -53v-8q61 -10 117.5 -35t99.5 -68t69.5 -104t26.5 -145q0 -111 -46 -192t-121 -132t-171 -75.5t-196 -24.5h-82t-98.5 3t-102.5 8t-90 15v1411q76 12 176 20.5t219 8.5q80 0 163 -13.5t150.5 -51t111.5 -105.5 t44 -174zM594 131q66 0 127 16.5t108.5 49t75 82t27.5 116.5q0 84 -34 135.5t-88 80t-121.5 38.5t-135.5 10h-178v-514q14 -4 40.5 -6t57.5 -4t63.5 -3t57.5 -1zM481 803q35 0 84 2t82 6q49 16 92 39.5t77 56.5t53.5 74t19.5 90q0 68 -25.5 113t-68.5 71.5t-98.5 37 t-112.5 10.5q-68 0 -124.5 -3.5t-84.5 -9.5v-487h106z" />
<glyph unicode="C" d="M938 1278q-35 14 -77 21.5t-101 7.5q-84 0 -165 -31t-143.5 -100.5t-100.5 -182t-38 -276.5q0 -147 34 -258t94.5 -184.5t145.5 -110.5t189 -37q53 0 99.5 9t85.5 26v205h151v-277l2 -4q-61 -47 -155.5 -79t-229.5 -32q-129 0 -238.5 44t-189.5 134.5t-124 230.5t-44 333 q0 201 49 341t133 229t196 130t239 41q70 0 121 -5t89.5 -14t68.5 -23.5t58 -33.5h3v-323h-152v219z" />
<glyph unicode="D" d="M164 1434q78 10 163 13t144 3q186 0 312 -53.5t203 -148.5t110.5 -228t33.5 -293q0 -145 -30.5 -279.5t-106 -238t-203.5 -165.5t-321 -62q-27 0 -70 1t-88 4t-86 5t-61 6v1436zM479 1298q-29 0 -73 -2t-72 -8v-1147q10 -2 29.5 -3t40 -2t40 -2t31.5 -1q150 0 243 49 t144 132t69.5 190.5t18.5 222.5q0 100 -16 201.5t-66.5 183.5t-143.5 134t-245 52z" />
<glyph unicode="E" d="M219 1434h842v-152h-672v-469h621v-151h-621v-510h682v-152h-852v1434z" />
<glyph unicode="F" d="M240 1434h821v-152h-651v-489h610v-152h-610v-641h-170v1434z" />
<glyph unicode="G" d="M895 1292q-70 14 -170 15q-86 0 -165 -30t-139.5 -99.5t-96 -182t-35.5 -278.5q0 -303 111.5 -446.5t322.5 -143.5q131 0 223 51v400h-295v137h441v-631q-33 -25 -79 -45.5t-98.5 -34.5t-108.5 -21.5t-110 -7.5q-137 0 -245.5 44t-184.5 135.5t-116.5 231.5t-40.5 331 q0 199 51 340t135 230t192.5 130t223.5 41q123 0 202.5 -13t135.5 -36l-2 -8v-342h-152v233z" />
<glyph unicode="H" d="M936 657h-643v-657h-170v1434h170v-625h643v625h170v-1434h-170v657z" />
<glyph unicode="I" d="M123 1434h983v-152h-408v-1130h408v-152h-983v152h405v1130h-405v152z" />
<glyph unicode="J" d="M199 1434h811v-926q0 -258 -123 -393t-355 -135q-59 0 -116.5 10t-106.5 27.5t-85 38t-52 38.5l74 135q23 -14 50.5 -30.5t61 -31.5t75.5 -25.5t95 -10.5q154 0 233 96.5t79 311.5v743h-641v152z" />
<glyph unicode="K" d="M502 664h-158v-664h-170v1434h170v-639h154l460 639h197l-506 -682l570 -752h-215z" />
<glyph unicode="L" d="M184 1434h170v-1282h580v356h151v-508h-901v1434z" />
<glyph unicode="M" d="M936 952l20 195h-10l-98 -176l-209 -350h-51l-219 352l-95 174h-10l25 -193v-954h-166v1434h158l340 -545h4l327 545h154v-1434h-170v952z" />
<glyph unicode="N" d="M401 897l-110 207h-8l20 -207v-897h-160v1434h111l577 -893l107 -197h10l-22 197v893h159v-1434h-110z" />
<glyph unicode="O" d="M98 717q0 356 126 548.5t388 192.5q143 0 242.5 -53t161 -150.5t88 -233.5t26.5 -304q0 -356 -125.5 -549t-392.5 -193q-141 0 -239.5 53.5t-159.5 150.5t-88 233.5t-27 304.5zM279 717q0 -119 15 -225.5t54 -187.5t102.5 -129t161.5 -48q176 0 257 143.5t81 446.5 q0 117 -15 224.5t-54 188t-104.5 129t-164.5 48.5q-174 0 -253.5 -144.5t-79.5 -445.5z" />
<glyph unicode="P" d="M205 1419q78 18 168 24.5t178 6.5q94 0 191.5 -18.5t177 -67.5t130 -135t50.5 -219q0 -131 -47 -221.5t-125 -146.5t-178.5 -80.5t-206.5 -24.5h-34t-49.5 1t-50 3t-34.5 4v-545h-170v1419zM555 1303q-53 0 -102.5 -2.5t-77.5 -10.5v-594q10 -4 32.5 -5t47 -2t47 -1h33.5 q70 0 138 13.5t123.5 48t89.5 98t34 162.5q0 84 -32 140t-84 90t-117.5 48.5t-131.5 14.5z" />
<glyph unicode="Q" d="M98 717q0 356 126 548.5t388 192.5q143 0 242.5 -53t161 -150.5t88 -233.5t26.5 -304q0 -330 -104 -517.5t-328 -217.5q18 -72 68.5 -108t128.5 -36q88 0 158 45l45 -125q-29 -33 -89.5 -52t-125.5 -19q-55 0 -113.5 15t-110 50t-89.5 91.5t-50 140.5 q-117 16 -196.5 74.5t-130 153.5t-73 223t-22.5 282zM279 717q0 -119 15 -225.5t54 -187.5t102.5 -129t161.5 -48q176 0 257 143.5t81 446.5q0 117 -15 224.5t-54 188t-104.5 129t-164.5 48.5q-174 0 -253.5 -144.5t-79.5 -445.5z" />
<glyph unicode="R" d="M205 1419q78 14 179 22.5t185 8.5q94 0 179.5 -20.5t150 -67.5t103 -123t38.5 -184q0 -84 -27.5 -148.5t-67.5 -110.5t-83 -75t-74 -41l379 -680h-198l-338 631h-256v-631h-170v1419zM573 1303h-55.5t-55 -2.5t-50 -4.5t-37.5 -6v-528h160q141 0 233 69.5t92 217.5 q0 111 -76 182.5t-211 71.5z" />
<glyph unicode="S" d="M307 203q61 -33 138 -54.5t155 -21.5q68 0 127 13.5t103 43t70 74.5t26 107q0 84 -56.5 137t-140.5 94t-182 80t-182 92t-140.5 130t-56.5 196q0 84 34 151.5t95 114.5t148 72.5t194 25.5q123 0 223.5 -17.5t159.5 -45.5l4 2v-4h2l-2 -7v-327h-152v219 q-51 12 -112.5 20.5t-130.5 8.5q-68 0 -122 -16.5t-92 -44t-58.5 -64.5t-20.5 -78q0 -80 56.5 -133t140 -95t182 -83t182.5 -95.5t140.5 -130t56.5 -188.5q0 -92 -34 -166t-96.5 -127t-153.5 -82t-206 -29q-78 0 -147.5 12.5t-128 31t-104.5 39t-72 34.5l2 6v332h151v-227z " />
<glyph unicode="T" d="M82 1434h1065v-375h-152v223h-297v-1130h226v-152h-621v152h225v1130h-295v-223h-151v375z" />
<glyph unicode="U" d="M942 1434h164v-957q0 -129 -34 -223t-95.5 -154.5t-149.5 -89t-194 -28.5q-254 0 -382 114.5t-128 347.5v990h170v-910q0 -109 21.5 -183.5t63.5 -120.5t106.5 -66.5t150.5 -20.5q166 0 236.5 91t70.5 300v910z" />
<glyph unicode="V" d="M618 211h23l389 1223h170l-481 -1434h-199l-491 1434h186z" />
<glyph unicode="W" d="M354 412l11 -133h14l29 145l151 559h135l142 -555l36 -152h11l12 140l152 1018h151l-221 -1434h-170l-166 582l-20 139h-7l-22 -141l-166 -580h-172l-223 1434h162z" />
<glyph unicode="X" d="M514 729l-432 705h205l286 -486l52 -96l49 96l305 486h188l-448 -691l469 -743h-199l-321 514l-56 102l-53 -102l-328 -514h-190z" />
<glyph unicode="Y" d="M530 549l-512 885h199l410 -709h2l399 709h182l-510 -883v-551h-170v549z" />
<glyph unicode="Z" d="M113 154l809 1128h-809v152h1003v-154l-813 -1128h813v-152h-1003v154z" />
<glyph unicode="[" d="M305 1434h780v-144h-620v-1618h620v-143h-780v1905z" />
<glyph unicode="\" d="M1061 -227l-135 -60l-758 1688l137 57z" />
<glyph unicode="]" d="M924 -471h-783v143h623v1618h-623v144h783v-1905z" />
<glyph unicode="^" d="M602 1456h60l499 -840h-168l-368 631l-383 -631h-170z" />
<glyph unicode="_" d="M115 -276h999v-144h-999v144z" />
<glyph unicode="`" d="M758 1169h-113l-244 306h224z" />
<glyph unicode="a" d="M221 944q88 51 198.5 73.5t217.5 22.5q104 0 170.5 -32.5t104.5 -85t51.5 -119t13.5 -133.5q0 -78 -4 -166t-6 -176q0 -102 12 -195h137v-133h-272l-19 154h-10q-12 -18 -36.5 -47t-64.5 -56.5t-97.5 -48t-135.5 -20.5q-152 0 -239.5 77.5t-87.5 212.5q0 104 46 174 t132 107t208 43t273 -16q10 94 3 156.5t-32.5 99t-71.5 52t-114 15.5q-92 0 -176 -25.5t-150 -52.5zM522 119q57 0 106.5 18.5t86.5 47t61.5 62.5t36.5 64v144q-106 18 -196.5 18t-156 -19.5t-102 -60.5t-36.5 -106q0 -68 45.5 -118t154.5 -50z" />
<glyph unicode="b" d="M4 1434h328v-527h10q53 68 137 105t183 37q451 0 450 -521q0 -264 -145.5 -404t-413.5 -140q-127 0 -229.5 24.5t-149.5 57.5v1230h-170v138zM641 911q-123 0 -198.5 -69.5t-110.5 -196.5v-471q47 -25 112.5 -39t137.5 -14q82 0 148.5 23.5t113.5 73.5t72.5 128t25.5 184 q0 78 -16.5 148t-52 122t-93 81.5t-139.5 29.5z" />
<glyph unicode="c" d="M899 866q-47 16 -101.5 27.5t-107.5 11.5q-201 0 -299 -94t-98 -299q0 -90 28.5 -160.5t82 -120t128 -76t164.5 -26.5q96 0 187.5 33t152.5 86l72 -119q-29 -25 -72 -51.5t-99 -50t-125 -38t-148 -14.5q-133 0 -234.5 38t-169 109t-102.5 170t-35 220q0 129 36 229.5 t103.5 168t163.5 103.5t215 36q152 0 247 -27t161 -59l-2 -7v-284h-148v194z" />
<glyph unicode="d" d="M715 1434h332v-1084q0 -18 2 -46t5 -58.5t7 -60t8 -52.5h137v-133h-272l-21 158h-8q-45 -78 -134 -130.5t-206 -52.5q-231 0 -340.5 130.5t-109.5 404.5q0 129 36.5 228.5t105.5 166t165 101t215 34.5q43 0 77 -2t62.5 -6t54 -11t56.5 -15v290h-172v138zM592 113 q125 0 196.5 64.5t98.5 193.5v475q-45 31 -101.5 45t-148.5 14q-164 0 -258 -95t-94 -300q0 -84 15 -156.5t51 -126t95.5 -84t145.5 -30.5z" />
<glyph unicode="e" d="M1083 129q-37 -33 -87 -61.5t-109.5 -49t-124 -32t-129.5 -11.5q-123 0 -217 38t-157.5 109t-96.5 169t-33 221q0 129 36 229.5t103.5 168t163.5 103.5t215 36q86 0 170 -22.5t148.5 -85t99.5 -172.5t25 -284h-793q0 -184 99.5 -275t265.5 -91q55 0 109 13t103.5 31.5 t87 41t58.5 41.5zM651 913q-68 0 -128 -14t-106 -48t-76 -88t-38 -134h637q-10 135 -87 209.5t-202 74.5z" />
<glyph unicode="f" d="M180 0v137h244v750h-244v137h244v57q0 193 100.5 279t286.5 86q68 0 121 -8t115 -33l-37 -133q-53 23 -102.5 30t-90.5 7q-135 0 -184 -66.5t-49 -218.5h424v-137h-424v-750h424v-137h-828z" />
<glyph unicode="g" d="M1073 -51q0 -96 -37 -169t-101.5 -120t-150.5 -70.5t-186 -23.5q-121 0 -211 24.5t-156 63.5l78 145q18 -16 48 -31.5t69 -28.5t83 -21.5t87 -8.5q90 0 150.5 16.5t97.5 51.5t53 90t16 135v115h-8q-47 -68 -120.5 -105t-190.5 -37q-233 0 -343 130.5t-110 404.5 q0 262 139.5 396t413.5 134q127 0 216 -17t163 -44v-1030zM616 113q125 0 197 64.5t100 197.5v485q-90 43 -251 43q-164 0 -258.5 -96t-94.5 -295q0 -88 16.5 -160.5t52.5 -126t94 -83t144 -29.5z" />
<glyph unicode="h" d="M8 1434h320v-537h10q63 72 147 112t209 40q98 0 171 -20.5t119 -72t68.5 -140.5t22.5 -226v-590h-160v559q0 88 -10 153.5t-39.5 109.5t-81 66.5t-131.5 22.5q-55 0 -108 -19.5t-97.5 -53t-76 -81.5t-43.5 -106v-651h-158v1296h-162v138z" />
<glyph unicode="i" d="M215 0v137h356v750h-356v137h520v-887h348v-137h-868zM516 1315q0 55 37 95t94 40q59 0 99 -40t40 -95q0 -53 -39.5 -90t-99.5 -37q-57 0 -94 37t-37 90z" />
<glyph unicode="j" d="M688 887h-495v137h659v-1049q0 -207 -105.5 -308t-291.5 -101q-55 0 -107.5 14t-97.5 33.5t-79 40t-50 33.5l67 133q55 -41 126 -72t147 -31q123 0 175 77t52 212v881zM602 1315q0 55 37 95t94 40q59 0 99 -40t40 -95q0 -53 -39.5 -90t-99.5 -37q-57 0 -94 37t-37 90z " />
<glyph unicode="k" d="M49 1434h332v-848h113l403 438h193l-453 -485l373 -402h133v-137h-211l-438 463h-113v-463h-158v1296h-174v138z" />
<glyph unicode="l" d="M143 1434h340v-1090q0 -125 42 -176t124 -51q57 0 116.5 22.5t108.5 63.5l74 -109q-33 -29 -71.5 -51.5t-79.5 -37.5t-82 -23.5t-76 -8.5q-76 0 -135.5 19.5t-99 62.5t-60 114t-20.5 175v952h-181v138z" />
<glyph unicode="m" d="M537 0v682q0 43 -3.5 83t-14.5 71.5t-32.5 50t-56.5 18.5q-70 0 -118 -57t-72 -143v-705h-156v1024h106l31 -125h8q20 31 40 58.5t45.5 48t60.5 32t88 11.5q31 0 63.5 -9.5t60 -29t48 -52t27.5 -79.5q47 80 105 125t161 45q68 0 109.5 -22.5t65 -64.5t33 -100.5 t9.5 -130.5v-731h-156v696q0 43 -4 81t-15.5 66.5t-30.5 45t-52 16.5q-72 0 -121 -57t-74 -164v-684h-155z" />
<glyph unicode="n" d="M190 666q0 18 -1 47.5t-3 61.5t-5 62.5t-7 53.5h-137v133h274l19 -166h10q20 35 54 69t79 61.5t100.5 44t116.5 16.5q94 0 167 -20.5t121 -73t72.5 -141.5t24.5 -226v-588h-160v557q0 170 -55 256t-201 86q-53 0 -103 -21.5t-91 -56.5t-72 -81t-45 -97v-643h-158v666z " />
<glyph unicode="o" d="M117 512q0 248 129 392.5t368 144.5q129 0 222.5 -42t155 -114t91 -170t29.5 -211q0 -123 -32.5 -222.5t-96 -169t-157 -107.5t-212.5 -38q-127 0 -221 42t-155.5 114t-91 170t-29.5 211zM287 512q0 -72 17.5 -143.5t56 -129t101 -92t152.5 -34.5q164 0 247 101t83 298 q0 74 -17.5 144.5t-57.5 128t-102 92t-153 34.5q-164 0 -245.5 -100t-81.5 -299z" />
<glyph unicode="p" d="M197 666q0 18 -1 47.5t-3.5 61.5t-5.5 62.5t-7 53.5h-137v133h272l21 -143h10q55 72 140 120t208 48q219 0 330 -121t111 -396q0 -129 -38 -232t-107.5 -175t-168 -111t-217.5 -39q-43 0 -76.5 3.5t-61.5 8.5t-54.5 13t-57.5 20v-430h-157v1076zM668 899 q-61 0 -115.5 -22.5t-96.5 -59.5t-69 -82t-33 -90v-467q45 -31 101.5 -48t148.5 -17q164 0 262.5 107.5t98.5 314.5q0 174 -68.5 269t-228.5 95z" />
<glyph unicode="q" d="M1055 -410h-160v525h-8q-47 -68 -121 -104t-191 -36q-233 0 -342.5 130.5t-109.5 404.5q0 262 139 396t414 134q121 0 225.5 -20.5t153.5 -42.5v-1387zM600 113q244 0 295 256v493q-45 23 -107.5 32t-142.5 9q-164 0 -258 -94t-94 -297q0 -88 15.5 -160.5t52 -126t95 -83 t144.5 -29.5z" />
<glyph unicode="r" d="M135 0v137h277v750h-277v137h383l33 -133h10q70 63 156 108t205 45q70 0 111.5 -26.5t65 -77.5t32 -124t8.5 -165l-144 -2q0 131 -25.5 192.5t-92.5 61.5q-63 0 -114.5 -18.5t-89.5 -45t-64.5 -53t-39.5 -45.5v-604h394v-137h-828z" />
<glyph unicode="s" d="M897 276q0 66 -51 102t-127 57.5t-165 40t-165 49t-127 82.5t-51 147q0 78 34 133t89 91t129 53.5t153 17.5q143 0 247 -36t165 -75l-65 -129q-68 37 -147 70.5t-198 33.5q-45 0 -89 -9t-79.5 -27.5t-57 -48t-21.5 -72.5q0 -53 51 -82t127 -48.5t165 -37t164.5 -50 t127 -88t51.5 -149.5q0 -141 -111.5 -233.5t-335.5 -92.5q-68 0 -133 12.5t-122.5 33t-104.5 46t-78 52.5l82 133q25 -25 65.5 -50.5t90 -46t105.5 -32.5t114 -12q55 0 103 9t85 28.5t58.5 51t21.5 76.5z" />
<glyph unicode="t" d="M63 1024h244v203l160 45v-248h547v-137h-547v-484q0 -150 72.5 -221t208.5 -71q92 0 160.5 34.5t123.5 75.5l53 -121q-72 -57 -171 -92t-203 -35q-82 0 -155 23.5t-128 73t-88 126t-33 183.5v508h-244v137z" />
<glyph unicode="u" d="M743 1024h291v-698q0 -100 13 -193h137v-133h-273l-6 174h-8q-53 -88 -141 -143.5t-213 -55.5q-94 0 -161 21.5t-110 75t-63.5 142.5t-20.5 222v451h-137v137h297v-555q0 -84 7 -150.5t30 -112.5t67 -69.5t117 -23.5q106 0 185.5 69.5t119.5 173.5v531h-131v137z" />
<glyph unicode="v" d="M618 199h23l322 825h178l-432 -1024h-181l-440 1024h188z" />
<glyph unicode="w" d="M694 799l205 -570h14l146 795h149l-200 -1024h-183l-196 565h-6l-205 -565h-182l-216 1024h158l166 -799h12l199 574h139z" />
<glyph unicode="x" d="M518 524l-395 500h205l295 -385l303 385h184l-395 -492l420 -532h-197l-326 420l-331 -420h-187z" />
<glyph unicode="y" d="M637 158h78l254 866h166l-285 -920q-23 -72 -46.5 -163t-66.5 -170.5t-116.5 -135t-192.5 -55.5q-27 0 -56.5 6t-58 15.5t-53 21.5t-37.5 25l58 147q12 -10 33.5 -20.5t47 -17.5t50 -12t41.5 -5q154 0 209 260h-138l-430 1024h185z" />
<glyph unicode="z" d="M172 137l694 750h-694v137h885v-137l-701 -750h701v-137h-885v137z" />
<glyph unicode="{" d="M451 66q0 88 -30 152.5t-74 107.5t-94 63.5t-89 20.5v143q39 0 89 17.5t94 57.5t74 103.5t30 157.5v209q0 74 23.5 135t65.5 106t100 71t128 26h297v-144h-225q-129 0 -179.5 -61.5t-50.5 -181.5v-199q0 -84 -30.5 -149.5t-73.5 -109.5t-88 -69.5t-74 -29.5v-13 q27 -4 72 -31.5t88 -75.5t74.5 -113.5t31.5 -145.5v-197q0 -125 53.5 -184.5t178.5 -59.5h223v-143h-297q-143 0 -230 85t-87 251v201z" />
<glyph unicode="|" d="M545 1434h139v-1700h-139v1700z" />
<glyph unicode="}" d="M778 -135q0 -166 -87 -251t-230 -85h-297v143h223q125 0 178 59.5t53 184.5v197q0 80 31 145.5t74 113.5t88 75.5t74 31.5v13q-29 4 -74 29.5t-88 69.5t-74 109.5t-31 149.5v199q0 121 -50 182t-179 61h-225v144h297q70 0 128 -26t100 -71t65.5 -106.5t23.5 -134.5v-209 q0 -94 30 -157.5t74 -103.5t94 -57.5t89 -17.5v-143q-39 0 -89 -20.5t-94 -63.5t-74 -107.5t-30 -152.5v-201z" />
<glyph unicode="~" d="M160 739q88 68 159.5 94.5t131.5 26.5q57 0 106 -17.5t94 -39t88 -38.5t90 -17q39 0 80 16t88 57l70 -125q-78 -53 -140.5 -74.5t-113.5 -21.5q-55 0 -101 17.5t-88 39t-84 39t-91 17.5q-47 0 -100.5 -21.5t-119.5 -75.5z" />
<glyph unicode="&#xa0;" />
<glyph unicode="&#xa1;" d="M698 -410h-170v711l35 361h101l34 -361v-711zM496 928q0 55 31.5 87t84.5 32q55 0 88 -32t33 -87q0 -53 -32.5 -86t-88.5 -33q-53 0 -84.5 33t-31.5 86z" />
<glyph unicode="&#xa2;" d="M1059 59q-25 -18 -61.5 -32.5t-77.5 -24.5t-85 -15t-83 -5v-187h-146v185q-205 20 -320.5 162.5t-115.5 369.5q0 117 35 210t94 160.5t138 107.5t169 52v187h146v-182q90 0 166.5 -24t121.5 -46l-47 -139q-20 10 -50 21t-64.5 21.5t-71.5 16.5t-70 6v-784q33 0 72 5 t78 14t70.5 21.5t48.5 24.5zM340 512q0 -68 17.5 -133.5t53 -118.5t89 -89t127.5 -44v772q-127 -16 -207 -114.5t-80 -272.5z" />
<glyph unicode="&#xa3;" d="M158 784h135q-25 55 -41 118t-16 149q0 201 114.5 304t313.5 103q125 0 217 -18.5t151 -46.5l-53 -146q-47 23 -126 41.5t-191 18.5q-123 0 -189.5 -66.5t-66.5 -179.5q0 -86 20 -150.5t49 -126.5h330v-143h-268q16 -47 26 -98t10 -113q0 -31 -4 -63.5t-16 -68.5 t-36.5 -73t-65.5 -73h620v-152h-913v147q66 0 111.5 24t75.5 61.5t44 86t14 97.5q0 68 -13 122t-34 103h-198v143z" />
<glyph unicode="&#xa4;" d="M199 1221l219 -217q80 55 194 55q109 0 195 -58l221 220l100 -101l-217 -221q53 -84 54 -192q0 -109 -54 -193l217 -221l-100 -98l-217 215q-84 -53 -199 -54q-117 0 -198 56l-215 -217l-101 98l215 219q-51 84 -51 195q0 53 14.5 102t38.5 92l-217 219zM403 707 q0 -92 58.5 -153.5t150.5 -61.5t151.5 61t59.5 154q0 92 -59 154.5t-152 62.5q-92 0 -150.5 -62.5t-58.5 -154.5z" />
<glyph unicode="&#xa5;" d="M281 672h192l-416 762h199l367 -697h10l354 697h182l-415 -762h196v-123h-250v-146h250v-122h-250v-281h-170v281h-249v122h249v146h-249v123z" />
<glyph unicode="&#xa6;" d="M545 422h139v-688h-139v688zM684 745h-139v689h139v-689z" />
<glyph unicode="&#xa7;" d="M221 723q0 31 9.5 67.5t31 73.5t56 72t88.5 61q-41 29 -75 74t-34 129q0 115 85 186.5t236 71.5q111 0 188 -18.5t132 -44.5l-39 -138q-49 23 -116.5 40.5t-141.5 17.5q-92 0 -136 -33t-44 -88q0 -53 40 -83t101.5 -52.5t131 -45t131 -58t101.5 -94t40 -150.5 q0 -63 -37 -138t-148 -137q55 -33 82 -76t27 -127q0 -63 -24.5 -111t-68.5 -81t-103.5 -49.5t-127.5 -16.5q-115 0 -188.5 19.5t-130.5 48.5l41 133q47 -23 113.5 -40t144.5 -17q86 0 133 27.5t47 93.5q0 53 -40 83.5t-101.5 53t-131 45t-131 58.5t-101.5 93.5t-40 149.5z M842 707q0 51 -27 83.5t-71 56t-99 41t-110 38.5q-59 -27 -104.5 -76t-45.5 -123q0 -51 26.5 -84t68.5 -56.5t96.5 -40t109.5 -36.5q29 12 56.5 32.5t50 46t36 55.5t13.5 63z" />
<glyph unicode="&#xa8;" d="M268 1321q0 53 32 87t85 34q51 0 84 -34t33 -87q0 -49 -33 -83t-84 -34q-53 0 -85 34t-32 83zM725 1321q0 53 31.5 87t83.5 34q53 0 87 -34t34 -87q0 -49 -34 -83t-87 -34q-51 0 -83 34t-32 83z" />
<glyph unicode="&#xa9;" d="M88 604q0 123 42 220.5t113.5 165t167 103t203.5 35.5q106 0 202.5 -35.5t167.5 -103t113 -165t42 -220.5t-42 -220t-113 -164.5t-167 -103.5t-203 -36q-121 0 -217 36t-165.5 103.5t-106.5 164.5t-37 220zM197 604q0 -102 31.5 -182t88 -134.5t133 -82t164.5 -27.5 t164 27.5t132.5 82t88 134.5t31.5 182t-31.5 181t-88 133.5t-132.5 83t-164 28.5t-164.5 -28.5t-133 -83t-88 -133.5t-31.5 -181zM791 362q-70 -41 -177 -40q-121 0 -184 75.5t-63 206.5q0 135 67.5 209t179.5 74q53 0 87 -10.5t79 -30.5l-39 -105q-68 31 -112 31 q-129 0 -129 -168q0 -86 37.5 -127t103.5 -41q37 0 65.5 7.5t53.5 21.5z" />
<glyph unicode="&#xaa;" d="M358 1386q51 27 135.5 45.5t186.5 18.5q127 0 174 -53.5t47 -153.5q0 -78 -3 -149.5t-3 -137.5q0 -49 3 -94t13 -84h-112l-27 94h-8q-27 -35 -76 -68.5t-137 -33.5q-106 0 -170 52t-64 143q0 63 31 106t83 69.5t123 39t153 12.5q14 0 27.5 -1t27.5 -1q2 12 2 23.5v21.5 q0 55 -24.5 77.5t-94.5 22.5q-82 0 -149.5 -15t-106.5 -36zM573 885q43 0 75 10t54.5 27.5t37 37t22.5 37.5v86q-23 2 -43.5 2h-42.5q-43 0 -82 -4t-68.5 -16t-47 -33.5t-17.5 -56.5q0 -41 29.5 -65.5t82.5 -24.5z" />
<glyph unicode="&#xab;" d="M102 541l400 520l119 -98l-320 -414l334 -408l-117 -100zM594 541l399 520l119 -98l-319 -414l333 -408l-116 -100z" />
<glyph unicode="&#xac;" d="M180 803h869v-393h-148v245h-721v148z" />
<glyph unicode="&#xad;" d="M365 666h499v-152h-499v152z" />
<glyph unicode="&#xae;" d="M72 924q0 131 43 232t117.5 170t173 104.5t208.5 35.5q113 0 212.5 -35.5t173 -104.5t115.5 -170t42 -232t-43 -232.5t-117.5 -170t-173 -104.5t-209.5 -36q-115 0 -213 36t-171.5 104.5t-115.5 170t-42 232.5zM201 924q0 -106 32.5 -185.5t89 -131.5t132 -78.5 t159.5 -26.5q88 0 164 25.5t131.5 77.5t87 131t31.5 188q0 106 -32.5 185t-89 131t-131.5 79t-161 27q-90 0 -165.5 -27t-131 -79t-86 -131t-30.5 -185zM403 1190q33 10 92.5 15t112.5 5q86 0 147.5 -35.5t61.5 -123.5q0 -33 -11 -56.5t-27.5 -41t-36 -28t-37.5 -14.5 l176 -252h-125l-160 213h-86v-213h-107v531zM586 1118q-23 0 -43.5 -1t-32.5 -7v-152h70q125 0 125 89q0 71 -119 71z" />
<glyph unicode="&#xaf;" d="M311 1317h607v-127h-607v127z" />
<glyph unicode="&#xb0;" d="M326 1169q0 63 22.5 116.5t61.5 91.5t92 59.5t112 21.5t112.5 -19.5t92.5 -57.5t61.5 -91t22.5 -121t-22.5 -121t-61.5 -90.5t-92 -57t-113 -19.5q-59 0 -112 19.5t-92 57t-61.5 90.5t-22.5 121zM455 1169q0 -78 48 -121.5t111 -43.5t111.5 44t48.5 121q0 78 -48 122 t-112 44q-63 0 -111 -44t-48 -122z" />
<glyph unicode="&#xb1;" d="M180 1010h361v370h147v-370h361v-148h-361v-246h-147v246h-361v148zM180 512h869v-147h-869v147z" />
<glyph unicode="&#xb2;" d="M911 1382q0 -76 -42 -144.5t-109.5 -128.5t-149.5 -111.5t-161 -90.5h503v-129h-719v109q33 27 84.5 59.5t110.5 69.5t119.5 79t110 86t80 90t30.5 93q0 43 -17.5 72.5t-44 49t-58.5 28t-62 8.5q-47 0 -87 -11.5t-74 -28t-60.5 -36t-42.5 -33.5l-66 100q18 18 51 42 t78 45.5t102.5 37t122.5 15.5q63 0 118.5 -17.5t95.5 -51.5t63.5 -84t23.5 -118z" />
<glyph unicode="&#xb3;" d="M537 887q98 0 155.5 39t57.5 114q0 66 -48.5 107t-152.5 41h-133v78l266 249h-467v123h647v-108l-264 -236v-4q137 -2 216 -70.5t79 -179.5q0 -125 -96.5 -200.5t-278.5 -75.5q-49 0 -104.5 11t-106.5 31.5t-94 49.5t-68 64l74 106q14 -16 43 -39.5t69 -46.5t91.5 -38 t114.5 -15z" />
<glyph unicode="&#xb4;" d="M535 1475h223l-244 -306h-113z" />
<glyph unicode="&#xb6;" d="M856 1434h139v-1700h-139v1700zM537 635q-66 0 -121.5 33.5t-95 90t-63.5 129.5t-24 148q0 76 24 147.5t69 127t110.5 89.5t147.5 34h92v-1700h-139v901z" />
<glyph unicode="&#xb7;" d="M477 625q0 66 37 101.5t98 35.5q66 0 103 -36t37 -101q0 -59 -37 -98.5t-103 -39.5q-61 0 -98 39.5t-37 98.5z" />
<glyph unicode="&#xb8;" d="M672 0l-49 -88q86 -16 123.5 -53t37.5 -101q0 -80 -65.5 -132t-183.5 -52q-23 0 -45.5 2t-47.5 6l19 80q12 -2 22.5 -2h20.5q45 0 70.5 8t39 19.5t16.5 26t3 26.5q0 57 -176 76l98 184h117z" />
<glyph unicode="&#xb9;" d="M274 903h299v563l-256 -143l-55 113l340 202h115v-735h276v-125h-719v125z" />
<glyph unicode="&#xba;" d="M297 1110q0 92 24.5 157.5t66.5 108.5t100.5 62.5t125.5 19.5q68 0 126.5 -18.5t100.5 -59.5t66.5 -107.5t24.5 -162.5t-24.5 -162.5t-66.5 -107.5t-100.5 -59.5t-126.5 -18.5t-126 18.5t-100 59.5t-66.5 107.5t-24.5 162.5zM449 1110q0 -123 44 -176t121 -53q39 0 70 11 t52.5 36.5t32.5 69.5t11 112t-11 112t-32.5 69.5t-52.5 36.5t-70 11q-78 0 -121.5 -48t-43.5 -181z" />
<glyph unicode="&#xbb;" d="M711 41l-117 100l334 408l-320 414l119 98l399 -520zM219 41l-117 100l334 408l-319 414l119 98l399 -520z" />
<glyph unicode="&#xbc;" d="M885 1460l96 -41l-631 -1444l-98 45zM1124 199h-104v-199h-119v199h-276v84l295 589h100v-565h104v-108zM901 629l-147 -322h147v322zM276 1264l-139 -121l-65 76l241 215h82v-861h-119v691z" />
<glyph unicode="&#xbd;" d="M860 1460l96 -41l-630 -1444l-99 45zM1122 651q0 -137 -67.5 -267t-171.5 -269h264v-115h-406v98q39 45 84 106.5t84 132.5t65.5 146.5t26.5 149.5q0 59 -23.5 93t-59.5 34q-37 0 -72 -11.5t-58 -29.5l-36 98q35 29 85 43t87 14q198 0 198 -223zM276 1264l-139 -121 l-65 76l241 215h82v-861h-119v691z" />
<glyph unicode="&#xbe;" d="M901 1460l96 -41l-630 -1444l-99 45zM236 674q63 0 92.5 43t29.5 119q0 66 -28.5 106.5t-96.5 40.5h-71v68l153 268h-219v115h359v-86l-158 -269v-6q92 2 137 -62.5t45 -174.5q0 -125 -65.5 -201t-165.5 -76q-47 0 -87 10.5t-71 26.5l27 109q49 -31 119 -31zM1124 199 h-104v-199h-119v199h-276v84l295 589h100v-565h104v-108zM901 629l-147 -322h147v322z" />
<glyph unicode="&#xbf;" d="M559 930q0 55 32 87t85 32q55 0 88 -32t33 -87q0 -53 -33 -86t-88 -33q-53 0 -85 33t-32 86zM754 662q2 -10 2 -22.5v-23.5q0 -86 -32 -147t-79 -109.5t-101.5 -87.5t-101.5 -83t-78.5 -97t-31.5 -127q0 -41 17.5 -85t56 -83t99 -63.5t144.5 -24.5q68 0 122 15.5t98 40 t80 54t65 58.5l104 -94q-86 -109 -200.5 -163t-294.5 -54q-123 0 -210 34.5t-142.5 89t-82 121t-26.5 130.5q0 96 33.5 163.5t85 119.5t110 94t109.5 90.5t84.5 107.5t33.5 146h136z" />
<glyph unicode="&#xc0;" d="M883 397h-551l-131 -397h-168l479 1434h201l483 -1434h-178zM385 545h451l-211 674h-25zM768 1540h-152l-323 199v43h233z" />
<glyph unicode="&#xc1;" d="M883 397h-551l-131 -397h-168l479 1434h201l483 -1434h-178zM385 545h451l-211 674h-25zM692 1782h234v-43l-334 -199h-141z" />
<glyph unicode="&#xc2;" d="M883 397h-551l-131 -397h-168l479 1434h201l483 -1434h-178zM385 545h451l-211 674h-25zM559 1784h123l297 -252h-203l-158 133l-169 -133h-207z" />
<glyph unicode="&#xc3;" d="M883 397h-551l-131 -397h-168l479 1434h201l483 -1434h-178zM385 545h451l-211 674h-25zM266 1616q63 66 130 85t116 19q39 0 76 -10t70.5 -23.5t66.5 -23.5t63 -10q53 0 103 43l59 -101q-55 -51 -108.5 -64t-96.5 -13q-39 0 -73.5 10t-68.5 23.5t-66.5 23.5t-65.5 10 t-64.5 -13t-66.5 -48z" />
<glyph unicode="&#xc4;" d="M883 397h-551l-131 -397h-168l479 1434h201l483 -1434h-178zM385 545h451l-211 674h-25zM258 1638q0 47 36 77t93 30q53 0 89 -29.5t36 -77.5q0 -47 -36 -75.5t-89 -28.5q-57 0 -93 28.5t-36 75.5zM719 1638q0 47 34.5 77t88.5 30q59 0 94 -29.5t35 -77.5 q0 -47 -35 -75.5t-94 -28.5q-53 0 -88 28.5t-35 75.5z" />
<glyph unicode="&#xc5;" d="M399 1573q0 76 51.5 125t163.5 49q102 0 159.5 -44t57.5 -130q0 -66 -40.5 -110t-120.5 -56l526 -1407h-178l-148 397h-528l-143 -397h-168l524 1407q-78 12 -117 56t-39 110zM397 545h422l-211 590h-2zM524 1573q0 -35 21.5 -58.5t68.5 -23.5q45 0 69 22.5t24 59.5 q0 39 -22.5 62.5t-70.5 23.5q-45 0 -67.5 -23.5t-22.5 -62.5z" />
<glyph unicode="&#xc6;" d="M623 1130l-43 -135l-168 -456h215v591h-4zM627 391h-267l-149 -391h-170l561 1434h557v-154h-368v-467h333v-154h-333v-505h374v-154h-538v391z" />
<glyph unicode="&#xc7;" d="M938 1278q-35 14 -77 21.5t-101 7.5q-84 0 -165 -31t-143.5 -100.5t-100.5 -182t-38 -276.5q0 -147 34 -258t94.5 -184.5t145.5 -110.5t189 -37q53 0 99.5 9t85.5 26v205h151v-277l2 -4q-61 -47 -156 -80q-68 -20 -155 -29l-37 -65q86 -16 124 -53t38 -101 q0 -80 -65.5 -132t-184.5 -52q-23 0 -45.5 2t-46.5 6l18 80q12 -2 23 -2h20q45 0 70.5 8t39 19.5t16.5 26t3 26.5q0 57 -176 76l84 161q-102 6 -195 41q-109 45 -188.5 135.5t-123.5 230.5t-44 333q0 201 49 341t133 229t196 130t239 41q70 0 121 -5t89.5 -14t68.5 -23.5 t58 -33.5h3v-323h-152v219z" />
<glyph unicode="&#xc8;" d="M219 1434h842v-152h-672v-469h621v-151h-621v-510h682v-152h-852v1434zM797 1540h-152l-323 199v43h233z" />
<glyph unicode="&#xc9;" d="M219 1434h842v-152h-672v-469h621v-151h-621v-510h682v-152h-852v1434zM720 1782h234v-43l-334 -199h-141z" />
<glyph unicode="&#xca;" d="M219 1434h842v-152h-672v-469h621v-151h-621v-510h682v-152h-852v1434zM582 1784h123l297 -252h-203l-158 133l-169 -133h-207z" />
<glyph unicode="&#xcb;" d="M219 1434h842v-152h-672v-469h621v-151h-621v-510h682v-152h-852v1434zM281 1638q0 47 36 77t93 30q53 0 89 -29.5t36 -77.5q0 -47 -36 -75.5t-89 -28.5q-57 0 -93 28.5t-36 75.5zM742 1638q0 47 34.5 77t88.5 30q59 0 94 -29.5t35 -77.5q0 -47 -35 -75.5t-94 -28.5 q-53 0 -88 28.5t-35 75.5z" />
<glyph unicode="&#xcc;" d="M123 1434h983v-152h-408v-1130h408v-152h-983v152h405v1130h-405v152zM793 1540h-152l-323 199v43h233z" />
<glyph unicode="&#xcd;" d="M123 1434h983v-152h-408v-1130h408v-152h-983v152h405v1130h-405v152zM684 1782h234v-43l-334 -199h-141z" />
<glyph unicode="&#xce;" d="M123 1434h983v-152h-408v-1130h408v-152h-983v152h405v1130h-405v152zM557 1784h123l297 -252h-203l-158 133l-169 -133h-207z" />
<glyph unicode="&#xcf;" d="M123 1434h983v-152h-408v-1130h408v-152h-983v152h405v1130h-405v152zM258 1638q0 47 36 77t93 30q53 0 89 -29.5t36 -77.5q0 -47 -36 -75.5t-89 -28.5q-57 0 -93 28.5t-36 75.5zM719 1638q0 47 34.5 77t88.5 30q59 0 94 -29.5t35 -77.5q0 -47 -35 -75.5t-94 -28.5 q-53 0 -88 28.5t-35 75.5z" />
<glyph unicode="&#xd0;" d="M18 803h185v631q78 10 177 13t185 3q172 0 292 -53.5t194.5 -148.5t107.5 -228t33 -293q0 -145 -31 -279.5t-105.5 -238t-199.5 -165.5t-311 -62q-33 0 -82 1t-100.5 4t-95.5 5t-64 6v682h-185v123zM569 1298q-53 0 -110.5 -2t-85.5 -8v-485h280v-123h-280v-539 q10 -2 34.5 -3t52 -2t53.5 -2t36 -1q143 0 234 49t141.5 132t69 190.5t18.5 222.5q0 100 -16.5 201.5t-64.5 183.5t-134.5 134t-227.5 52z" />
<glyph unicode="&#xd1;" d="M401 897l-110 207h-8l20 -207v-897h-160v1434h111l577 -893l107 -197h10l-22 197v893h159v-1434h-110zM266 1616q63 66 130 85t116 19q39 0 76 -10t70.5 -23.5t66.5 -23.5t63 -10q53 0 103 43l59 -101q-55 -51 -108.5 -64t-96.5 -13q-39 0 -73.5 10t-68.5 23.5 t-66.5 23.5t-65.5 10t-64.5 -13t-66.5 -48z" />
<glyph unicode="&#xd2;" d="M98 717q0 356 126 548.5t388 192.5q143 0 242.5 -53t161 -150.5t88 -233.5t26.5 -304q0 -356 -125.5 -549t-392.5 -193q-141 0 -239.5 53.5t-159.5 150.5t-88 233.5t-27 304.5zM279 717q0 -119 15 -225.5t54 -187.5t102.5 -129t161.5 -48q176 0 257 143.5t81 446.5 q0 117 -15 224.5t-54 188t-104.5 129t-164.5 48.5q-174 0 -253.5 -144.5t-79.5 -445.5zM756 1540h-152l-323 199v43h233z" />
<glyph unicode="&#xd3;" d="M98 717q0 356 126 548.5t388 192.5q143 0 242.5 -53t161 -150.5t88 -233.5t26.5 -304q0 -356 -125.5 -549t-392.5 -193q-141 0 -239.5 53.5t-159.5 150.5t-88 233.5t-27 304.5zM279 717q0 -119 15 -225.5t54 -187.5t102.5 -129t161.5 -48q176 0 257 143.5t81 446.5 q0 117 -15 224.5t-54 188t-104.5 129t-164.5 48.5q-174 0 -253.5 -144.5t-79.5 -445.5zM763 1782h234v-43l-334 -199h-141z" />
<glyph unicode="&#xd4;" d="M98 717q0 356 126 548.5t388 192.5q143 0 242.5 -53t161 -150.5t88 -233.5t26.5 -304q0 -356 -125.5 -549t-392.5 -193q-141 0 -239.5 53.5t-159.5 150.5t-88 233.5t-27 304.5zM279 717q0 -119 15 -225.5t54 -187.5t102.5 -129t161.5 -48q176 0 257 143.5t81 446.5 q0 117 -15 224.5t-54 188t-104.5 129t-164.5 48.5q-174 0 -253.5 -144.5t-79.5 -445.5zM555 1784h123l297 -252h-203l-158 133l-169 -133h-207z" />
<glyph unicode="&#xd5;" d="M98 717q0 356 126 548.5t388 192.5q143 0 242.5 -53t161 -150.5t88 -233.5t26.5 -304q0 -356 -125.5 -549t-392.5 -193q-141 0 -239.5 53.5t-159.5 150.5t-88 233.5t-27 304.5zM279 717q0 -119 15 -225.5t54 -187.5t102.5 -129t161.5 -48q176 0 257 143.5t81 446.5 q0 117 -15 224.5t-54 188t-104.5 129t-164.5 48.5q-174 0 -253.5 -144.5t-79.5 -445.5zM264 1616q63 66 130 85t116 19q39 0 76 -10t70.5 -23.5t66.5 -23.5t63 -10q53 0 103 43l59 -101q-55 -51 -108.5 -64t-96.5 -13q-39 0 -73.5 10t-68.5 23.5t-66.5 23.5t-65.5 10 t-64.5 -13t-66.5 -48z" />
<glyph unicode="&#xd6;" d="M98 717q0 356 126 548.5t388 192.5q143 0 242.5 -53t161 -150.5t88 -233.5t26.5 -304q0 -356 -125.5 -549t-392.5 -193q-141 0 -239.5 53.5t-159.5 150.5t-88 233.5t-27 304.5zM279 717q0 -119 15 -225.5t54 -187.5t102.5 -129t161.5 -48q176 0 257 143.5t81 446.5 q0 117 -15 224.5t-54 188t-104.5 129t-164.5 48.5q-174 0 -253.5 -144.5t-79.5 -445.5zM254 1638q0 47 36 77t93 30q53 0 89 -29.5t36 -77.5q0 -47 -36 -75.5t-89 -28.5q-57 0 -93 28.5t-36 75.5zM715 1638q0 47 34.5 77t88.5 30q59 0 94 -29.5t35 -77.5q0 -47 -35 -75.5 t-94 -28.5q-53 0 -88 28.5t-35 75.5z" />
<glyph unicode="&#xd7;" d="M356 1059l258 -260l260 260l105 -109l-258 -258l258 -260l-105 -106l-260 262l-260 -262l-106 104l262 264l-258 256z" />
<glyph unicode="&#xd8;" d="M164 186q-70 98 -102.5 231.5t-32.5 299.5q0 358 151.5 549.5t431.5 191.5q117 0 207 -30.5t160 -90.5l86 123l106 -71l-104 -148q68 -98 100.5 -230t32.5 -294q0 -358 -152.5 -550t-435.5 -192q-219 0 -358 115l-80 -115l-106 74zM209 717q0 -104 17.5 -196.5 t54.5 -170.5l593 842q-47 53 -111.5 84t-150.5 31q-188 0 -295.5 -144.5t-107.5 -445.5zM1020 717q0 98 -17.5 190t-52.5 168l-594 -842q47 -51 110.5 -78.5t145.5 -27.5q190 0 299 144.5t109 445.5z" />
<glyph unicode="&#xd9;" d="M942 1434h164v-957q0 -129 -34 -223t-95.5 -154.5t-149.5 -89t-194 -28.5q-254 0 -382 114.5t-128 347.5v990h170v-910q0 -109 21.5 -183.5t63.5 -120.5t106.5 -66.5t150.5 -20.5q166 0 236.5 91t70.5 300v910zM782 1540h-152l-323 199v43h233z" />
<glyph unicode="&#xda;" d="M942 1434h164v-957q0 -129 -34 -223t-95.5 -154.5t-149.5 -89t-194 -28.5q-254 0 -382 114.5t-128 347.5v990h170v-910q0 -109 21.5 -183.5t63.5 -120.5t106.5 -66.5t150.5 -20.5q166 0 236.5 91t70.5 300v910zM745 1782h234v-43l-334 -199h-141z" />
<glyph unicode="&#xdb;" d="M942 1434h164v-957q0 -129 -34 -223t-95.5 -154.5t-149.5 -89t-194 -28.5q-254 0 -382 114.5t-128 347.5v990h170v-910q0 -109 21.5 -183.5t63.5 -120.5t106.5 -66.5t150.5 -20.5q166 0 236.5 91t70.5 300v910zM563 1784h123l297 -252h-203l-158 133l-169 -133h-207z" />
<glyph unicode="&#xdc;" d="M942 1434h164v-957q0 -129 -34 -223t-95.5 -154.5t-149.5 -89t-194 -28.5q-254 0 -382 114.5t-128 347.5v990h170v-910q0 -109 21.5 -183.5t63.5 -120.5t106.5 -66.5t150.5 -20.5q166 0 236.5 91t70.5 300v910zM260 1638q0 47 36 77t93 30q53 0 89 -29.5t36 -77.5 q0 -47 -36 -75.5t-89 -28.5q-57 0 -93 28.5t-36 75.5zM721 1638q0 47 34.5 77t88.5 30q59 0 94 -29.5t35 -77.5q0 -47 -35 -75.5t-94 -28.5q-53 0 -88 28.5t-35 75.5z" />
<glyph unicode="&#xdd;" d="M530 549l-512 885h199l410 -709h2l399 709h182l-510 -883v-551h-170v549zM727 1782h234v-43l-334 -199h-141z" />
<glyph unicode="&#xde;" d="M186 1434h170v-154q20 2 49 3t60 2t58.5 1h49.5q94 0 191.5 -18.5t177.5 -67.5t130 -135t50 -219q0 -131 -47 -221t-125 -146.5t-178 -82t-207 -25.5h-39.5t-63.5 1t-64.5 3t-41.5 4v-379h-170v1434zM578 1139h-59t-63.5 -2t-58 -4.5t-41.5 -6.5v-594q10 -4 39 -5 t61.5 -3t61.5 -2h39q70 0 138.5 13.5t123.5 49.5t89 99.5t34 161.5q0 84 -31.5 140t-84 90t-117.5 48.5t-131 14.5z" />
<glyph unicode="&#xdf;" d="M817 1145q0 35 -19.5 64.5t-50 50t-67.5 32t-72 11.5q-57 0 -97 -14.5t-64.5 -47.5t-36 -87t-11.5 -134v-1020h-163v881h-160v143h160v47q0 199 97 287t269 88q84 0 153.5 -21.5t120 -61.5t78 -94.5t27.5 -121.5q0 -78 -39 -125t-85 -84t-85 -72t-39 -86q0 -45 31 -71.5 t78 -47t100 -42t100.5 -56.5t78 -91t30.5 -146q0 -66 -24.5 -128.5t-70.5 -111.5t-116 -80t-158 -31q-47 0 -82.5 3.5t-65.5 10.5t-56.5 17t-53.5 27l47 133q25 -12 43.5 -22.5t40 -16.5t48 -9t65.5 -3q43 0 83 15t70.5 42t48 64.5t17.5 82.5q0 61 -30.5 97.5t-78 61 t-100.5 44t-100 49t-78 75.5t-31 124q0 80 39 128t85 86t85 73t39 88z" />
<glyph unicode="&#xe0;" d="M221 944q88 51 198.5 73.5t217.5 22.5q104 0 170.5 -32.5t104.5 -85t51.5 -119t13.5 -133.5q0 -78 -4 -166t-6 -176q0 -102 12 -195h137v-133h-272l-19 154h-10q-12 -18 -36.5 -47t-64.5 -56.5t-97.5 -48t-135.5 -20.5q-152 0 -239.5 77.5t-87.5 212.5q0 104 46 174 t132 107t208 43t273 -16q10 94 3 156.5t-32.5 99t-71.5 52t-114 15.5q-92 0 -176 -25.5t-150 -52.5zM522 119q57 0 106.5 18.5t86.5 47t61.5 62.5t36.5 64v144q-106 18 -196.5 18t-156 -19.5t-102 -60.5t-36.5 -106q0 -68 45.5 -118t154.5 -50zM740 1169h-113l-244 306h224z " />
<glyph unicode="&#xe1;" d="M221 944q88 51 198.5 73.5t217.5 22.5q104 0 170.5 -32.5t104.5 -85t51.5 -119t13.5 -133.5q0 -78 -4 -166t-6 -176q0 -102 12 -195h137v-133h-272l-19 154h-10q-12 -18 -36.5 -47t-64.5 -56.5t-97.5 -48t-135.5 -20.5q-152 0 -239.5 77.5t-87.5 212.5q0 104 46 174 t132 107t208 43t273 -16q10 94 3 156.5t-32.5 99t-71.5 52t-114 15.5q-92 0 -176 -25.5t-150 -52.5zM522 119q57 0 106.5 18.5t86.5 47t61.5 62.5t36.5 64v144q-106 18 -196.5 18t-156 -19.5t-102 -60.5t-36.5 -106q0 -68 45.5 -118t154.5 -50zM613 1475h223l-244 -306h-113 z" />
<glyph unicode="&#xe2;" d="M221 944q88 51 198.5 73.5t217.5 22.5q104 0 170.5 -32.5t104.5 -85t51.5 -119t13.5 -133.5q0 -78 -4 -166t-6 -176q0 -102 12 -195h137v-133h-272l-19 154h-10q-12 -18 -36.5 -47t-64.5 -56.5t-97.5 -48t-135.5 -20.5q-152 0 -239.5 77.5t-87.5 212.5q0 104 46 174 t132 107t208 43t273 -16q10 94 3 156.5t-32.5 99t-71.5 52t-114 15.5q-92 0 -176 -25.5t-150 -52.5zM522 119q57 0 106.5 18.5t86.5 47t61.5 62.5t36.5 64v144q-106 18 -196.5 18t-156 -19.5t-102 -60.5t-36.5 -106q0 -68 45.5 -118t154.5 -50zM578 1499h76l276 -373h-160 l-166 224l-176 -224h-143z" />
<glyph unicode="&#xe3;" d="M221 944q88 51 198.5 73.5t217.5 22.5q104 0 170.5 -32.5t104.5 -85t51.5 -119t13.5 -133.5q0 -78 -4 -166t-6 -176q0 -102 12 -195h137v-133h-272l-19 154h-10q-12 -18 -36.5 -47t-64.5 -56.5t-97.5 -48t-135.5 -20.5q-152 0 -239.5 77.5t-87.5 212.5q0 104 46 174 t132 107t208 43t273 -16q10 94 3 156.5t-32.5 99t-71.5 52t-114 15.5q-92 0 -176 -25.5t-150 -52.5zM522 119q57 0 106.5 18.5t86.5 47t61.5 62.5t36.5 64v144q-106 18 -196.5 18t-156 -19.5t-102 -60.5t-36.5 -106q0 -68 45.5 -118t154.5 -50zM289 1339q59 68 122.5 95.5 t104.5 27.5q35 0 65 -13t57.5 -28.5t53 -28t54.5 -12.5q45 0 94 50l72 -91q-53 -59 -99.5 -80.5t-101.5 -19.5q-33 0 -61.5 13.5t-56.5 28.5t-55.5 27.5t-55.5 12.5q-27 0 -54.5 -14.5t-62.5 -49.5z" />
<glyph unicode="&#xe4;" d="M221 944q88 51 198.5 73.5t217.5 22.5q104 0 170.5 -32.5t104.5 -85t51.5 -119t13.5 -133.5q0 -78 -4 -166t-6 -176q0 -102 12 -195h137v-133h-272l-19 154h-10q-12 -18 -36.5 -47t-64.5 -56.5t-97.5 -48t-135.5 -20.5q-152 0 -239.5 77.5t-87.5 212.5q0 104 46 174 t132 107t208 43t273 -16q10 94 3 156.5t-32.5 99t-71.5 52t-114 15.5q-92 0 -176 -25.5t-150 -52.5zM522 119q57 0 106.5 18.5t86.5 47t61.5 62.5t36.5 64v144q-106 18 -196.5 18t-156 -19.5t-102 -60.5t-36.5 -106q0 -68 45.5 -118t154.5 -50zM260 1321q0 53 32 87t85 34 q51 0 84 -34t33 -87q0 -49 -33 -83t-84 -34q-53 0 -85 34t-32 83zM717 1321q0 53 31.5 87t83.5 34q53 0 87 -34t34 -87q0 -49 -34 -83t-87 -34q-51 0 -83 34t-32 83z" />
<glyph unicode="&#xe5;" d="M221 944q88 51 198.5 73.5t217.5 22.5q104 0 170.5 -32.5t104.5 -85t51.5 -119t13.5 -133.5q0 -78 -4 -166t-6 -176q0 -102 12 -195h137v-133h-272l-19 154h-10q-12 -18 -36.5 -47t-64.5 -56.5t-97.5 -48t-135.5 -20.5q-152 0 -239.5 77.5t-87.5 212.5q0 104 46 174 t132 107t208 43t273 -16q10 94 3 156.5t-32.5 99t-71.5 52t-114 15.5q-92 0 -176 -25.5t-150 -52.5zM522 119q57 0 106.5 18.5t86.5 47t61.5 62.5t36.5 64v144q-106 18 -196.5 18t-156 -19.5t-102 -60.5t-36.5 -106q0 -68 45.5 -118t154.5 -50zM406 1317q0 86 54 136t144 50 q86 0 143.5 -45t57.5 -141q0 -80 -57.5 -132t-143.5 -52t-142 48t-56 136zM516 1317q0 -41 27 -63.5t61 -22.5q39 0 64.5 20.5t25.5 65.5t-27.5 66.5t-62.5 21.5t-61.5 -20.5t-26.5 -67.5z" />
<glyph unicode="&#xe6;" d="M358 121q66 0 114 36t63 89v215q-6 0 -22.5 1t-34 2t-34 1h-22.5q-41 0 -80 -5t-67.5 -22.5t-46 -51.5t-17.5 -89q0 -72 34.5 -124t112.5 -52zM580 133q-35 -72 -100.5 -110.5t-170.5 -38.5q-111 0 -180.5 81.5t-69.5 217.5q0 88 25 148.5t70 97t105 52t134 15.5h27.5 t41 -1t41 -2t29.5 -1q2 29 3.5 55.5t1.5 48.5q0 59 -16.5 99.5t-42 64t-59.5 33.5t-71 10q-47 0 -102.5 -19.5t-93.5 -49.5l-39 118q51 45 121.5 66.5t146.5 21.5q35 0 73 -8t72.5 -24.5t61 -40t37.5 -56.5q18 37 47.5 62.5t64.5 43t72 25t68 7.5q47 0 99 -15.5t95 -58.5 t70.5 -117t27.5 -190q0 -41 -2 -96.5t-8 -102.5h-493q2 -197 67.5 -276.5t173.5 -79.5q25 0 51.5 5t52 12t46 17.5t30.5 20.5l50 -115q-41 -35 -114 -56.5t-151 -21.5q-41 0 -85 10.5t-82.5 30t-69.5 49t-47 68.5h-8zM877 911q-37 0 -73 -18.5t-64.5 -57t-48 -96 t-21.5 -137.5h358v37q0 137 -46 204.5t-105 67.5z" />
<glyph unicode="&#xe7;" d="M899 866q-47 16 -101.5 27.5t-107.5 11.5q-201 0 -299 -94t-98 -299q0 -90 28.5 -160.5t82 -120t128 -76t164.5 -26.5q96 0 187.5 33t152.5 86l72 -119q-53 -47 -155.5 -95t-243.5 -57l-35 -65q86 -16 124 -53t38 -101q0 -80 -65.5 -132t-184.5 -52q-23 0 -45.5 2 t-46.5 6l18 80q12 -2 22.5 -2h20.5q45 0 70.5 8t39 19.5t16.5 26t3 26.5q0 57 -176 76l86 164q-233 18 -352 161.5t-119 370.5q0 129 36 229.5t103.5 168t163.5 103.5t215 36q152 0 247 -27t161 -59l-2 -7v-284h-148v194z" />
<glyph unicode="&#xe8;" d="M1083 129q-37 -33 -87 -61.5t-109.5 -49t-124 -32t-129.5 -11.5q-123 0 -217 38t-157.5 109t-96.5 169t-33 221q0 129 36 229.5t103.5 168t163.5 103.5t215 36q86 0 170 -22.5t148.5 -85t99.5 -172.5t25 -284h-793q0 -184 99.5 -275t265.5 -91q55 0 109 13t103.5 31.5 t87 41t58.5 41.5zM651 913q-68 0 -128 -14t-106 -48t-76 -88t-38 -134h637q-10 135 -87 209.5t-202 74.5zM752 1169h-113l-244 306h224z" />
<glyph unicode="&#xe9;" d="M1083 129q-37 -33 -87 -61.5t-109.5 -49t-124 -32t-129.5 -11.5q-123 0 -217 38t-157.5 109t-96.5 169t-33 221q0 129 36 229.5t103.5 168t163.5 103.5t215 36q86 0 170 -22.5t148.5 -85t99.5 -172.5t25 -284h-793q0 -184 99.5 -275t265.5 -91q55 0 109 13t103.5 31.5 t87 41t58.5 41.5zM651 913q-68 0 -128 -14t-106 -48t-76 -88t-38 -134h637q-10 135 -87 209.5t-202 74.5zM641 1475h223l-244 -306h-113z" />
<glyph unicode="&#xea;" d="M1083 129q-37 -33 -87 -61.5t-109.5 -49t-124 -32t-129.5 -11.5q-123 0 -217 38t-157.5 109t-96.5 169t-33 221q0 129 36 229.5t103.5 168t163.5 103.5t215 36q86 0 170 -22.5t148.5 -85t99.5 -172.5t25 -284h-793q0 -184 99.5 -275t265.5 -91q55 0 109 13t103.5 31.5 t87 41t58.5 41.5zM651 913q-68 0 -128 -14t-106 -48t-76 -88t-38 -134h637q-10 135 -87 209.5t-202 74.5zM590 1499h76l276 -373h-160l-166 224l-176 -224h-143z" />
<glyph unicode="&#xeb;" d="M1083 129q-37 -33 -87 -61.5t-109.5 -49t-124 -32t-129.5 -11.5q-123 0 -217 38t-157.5 109t-96.5 169t-33 221q0 129 36 229.5t103.5 168t163.5 103.5t215 36q86 0 170 -22.5t148.5 -85t99.5 -172.5t25 -284h-793q0 -184 99.5 -275t265.5 -91q55 0 109 13t103.5 31.5 t87 41t58.5 41.5zM651 913q-68 0 -128 -14t-106 -48t-76 -88t-38 -134h637q-10 135 -87 209.5t-202 74.5zM288 1321q0 53 32 87t85 34q51 0 84 -34t33 -87q0 -49 -33 -83t-84 -34q-53 0 -85 34t-32 83zM745 1321q0 53 31.5 87t83.5 34q53 0 87 -34t34 -87q0 -49 -34 -83 t-87 -34q-51 0 -83 34t-32 83z" />
<glyph unicode="&#xec;" d="M299 0v137h356v750h-356v137h520v-887h348v-137h-868zM756 1169h-113l-244 306h224z" />
<glyph unicode="&#xed;" d="M215 0v137h356v750h-356v137h520v-887h348v-137h-868zM607 1475h223l-244 -306h-113z" />
<glyph unicode="&#xee;" d="M215 0v137h356v750h-356v137h520v-887h348v-137h-868zM561 1499h76l276 -373h-160l-166 224l-176 -224h-143z" />
<glyph unicode="&#xef;" d="M219 0v137h356v750h-356v137h520v-887h348v-137h-868zM268 1321q0 53 32 87t85 34q51 0 84 -34t33 -87q0 -49 -33 -83t-84 -34q-53 0 -85 34t-32 83zM725 1321q0 53 31.5 87t83.5 34q53 0 87 -34t34 -87q0 -49 -34 -83t-87 -34q-51 0 -83 34t-32 83z" />
<glyph unicode="&#xf0;" d="M489 1221l117 63q-78 47 -155 66l71 110q37 -14 94.5 -38.5t118.5 -67.5l139 76l54 -93l-103 -55q49 -47 103.5 -109.5t100.5 -145.5t77 -187.5t31 -235.5q0 -166 -43 -284.5t-116 -195.5t-167 -113t-195 -36q-133 0 -228 43t-156.5 117t-90 171t-28.5 208 q0 106 31.5 202.5t94 169t156.5 115.5t217 43q92 0 170 -26.5t131 -67.5q-35 72 -94 141.5t-119 122.5l-155 -84zM283 512q0 -100 26.5 -174t72.5 -123t108.5 -72.5t134.5 -23.5q66 0 128 26.5t111 84t79 147.5t30 217q0 20 -1 46t-2 51.5t-4 49t-8 39.5q-29 31 -69.5 53.5 t-84.5 38t-90 22.5t-85 7q-90 0 -154.5 -30.5t-107.5 -83t-63.5 -123t-20.5 -152.5z" />
<glyph unicode="&#xf1;" d="M190 666q0 18 -1 47.5t-3 61.5t-5 62.5t-7 53.5h-137v133h274l19 -166h10q20 35 54 69t79 61.5t100.5 44t116.5 16.5q94 0 167 -20.5t121 -73t72.5 -141.5t24.5 -226v-588h-160v557q0 170 -55 256t-201 86q-53 0 -103 -21.5t-91 -56.5t-72 -81t-45 -97v-643h-158v666z M299 1339q59 68 122.5 95.5t104.5 27.5q35 0 65 -13t57.5 -28.5t53 -28t54.5 -12.5q45 0 94 50l72 -91q-53 -59 -99.5 -80.5t-101.5 -19.5q-33 0 -61.5 13.5t-56.5 28.5t-55.5 27.5t-55.5 12.5q-27 0 -54.5 -14.5t-62.5 -49.5z" />
<glyph unicode="&#xf2;" d="M117 512q0 248 129 392.5t368 144.5q129 0 222.5 -42t155 -114t91 -170t29.5 -211q0 -123 -32.5 -222.5t-96 -169t-157 -107.5t-212.5 -38q-127 0 -221 42t-155.5 114t-91 170t-29.5 211zM287 512q0 -72 17.5 -143.5t56 -129t101 -92t152.5 -34.5q164 0 247 101t83 298 q0 74 -17.5 144.5t-57.5 128t-102 92t-153 34.5q-164 0 -245.5 -100t-81.5 -299zM697 1169h-113l-244 306h224z" />
<glyph unicode="&#xf3;" d="M117 512q0 248 129 392.5t368 144.5q129 0 222.5 -42t155 -114t91 -170t29.5 -211q0 -123 -32.5 -222.5t-96 -169t-157 -107.5t-212.5 -38q-127 0 -221 42t-155.5 114t-91 170t-29.5 211zM287 512q0 -72 17.5 -143.5t56 -129t101 -92t152.5 -34.5q164 0 247 101t83 298 q0 74 -17.5 144.5t-57.5 128t-102 92t-153 34.5q-164 0 -245.5 -100t-81.5 -299zM664 1475h223l-244 -306h-113z" />
<glyph unicode="&#xf4;" d="M117 512q0 248 129 392.5t368 144.5q129 0 222.5 -42t155 -114t91 -170t29.5 -211q0 -123 -32.5 -222.5t-96 -169t-157 -107.5t-212.5 -38q-127 0 -221 42t-155.5 114t-91 170t-29.5 211zM287 512q0 -72 17.5 -143.5t56 -129t101 -92t152.5 -34.5q164 0 247 101t83 298 q0 74 -17.5 144.5t-57.5 128t-102 92t-153 34.5q-164 0 -245.5 -100t-81.5 -299zM588 1499h76l276 -373h-160l-166 224l-176 -224h-143z" />
<glyph unicode="&#xf5;" d="M117 512q0 248 129 392.5t368 144.5q129 0 222.5 -42t155 -114t91 -170t29.5 -211q0 -123 -32.5 -222.5t-96 -169t-157 -107.5t-212.5 -38q-127 0 -221 42t-155.5 114t-91 170t-29.5 211zM287 512q0 -72 17.5 -143.5t56 -129t101 -92t152.5 -34.5q164 0 247 101t83 298 q0 74 -17.5 144.5t-57.5 128t-102 92t-153 34.5q-164 0 -245.5 -100t-81.5 -299zM301 1339q59 68 122.5 95.5t104.5 27.5q35 0 65 -13t57.5 -28.5t53 -28t54.5 -12.5q45 0 94 50l72 -91q-53 -59 -99.5 -80.5t-101.5 -19.5q-33 0 -61.5 13.5t-56.5 28.5t-55.5 27.5 t-55.5 12.5q-27 0 -54.5 -14.5t-62.5 -49.5z" />
<glyph unicode="&#xf6;" d="M117 512q0 248 129 392.5t368 144.5q129 0 222.5 -42t155 -114t91 -170t29.5 -211q0 -123 -32.5 -222.5t-96 -169t-157 -107.5t-212.5 -38q-127 0 -221 42t-155.5 114t-91 170t-29.5 211zM287 512q0 -72 17.5 -143.5t56 -129t101 -92t152.5 -34.5q164 0 247 101t83 298 q0 74 -17.5 144.5t-57.5 128t-102 92t-153 34.5q-164 0 -245.5 -100t-81.5 -299zM266 1321q0 53 32 87t85 34q51 0 84 -34t33 -87q0 -49 -33 -83t-84 -34q-53 0 -85 34t-32 83zM723 1321q0 53 31.5 87t83.5 34q53 0 87 -34t34 -87q0 -49 -34 -83t-87 -34q-51 0 -83 34 t-32 83z" />
<glyph unicode="&#xf7;" d="M139 766h951v-148h-951v148zM479 1094q0 66 37 101.5t98 35.5q66 0 103 -36t37 -101q0 -59 -37 -98.5t-103 -39.5q-61 0 -98 39.5t-37 98.5zM479 326q0 66 37 101.5t98 35.5q66 0 103 -36t37 -101q0 -59 -37 -98.5t-103 -39.5q-61 0 -98 39.5t-37 98.5z" />
<glyph unicode="&#xf8;" d="M117 512q0 248 129 392.5t368 144.5q129 0 222 -43q16 -6 30 -15l47 64l111 -76l-49 -68l16 -18q61 -72 91 -170t30 -211q0 -123 -32.5 -222.5t-96 -169t-157 -107.5t-212.5 -38q-127 0 -221 41q-23 10 -45 23l-49 -70l-106 76l53 76q-4 4 -8 10q-61 72 -91 170t-30 211z M461 147q63 -35 153 -34q164 0 247 101t83 298q0 74 -18 143q-14 66 -49 119l-441 -612zM287 512q0 -72 16 -143q14 -59 43 -109l434 608q-6 4 -14 9q-61 35 -152 34q-164 0 -245.5 -100t-81.5 -299z" />
<glyph unicode="&#xf9;" d="M743 1024h291v-698q0 -100 13 -193h137v-133h-273l-6 174h-8q-53 -88 -141 -143.5t-213 -55.5q-94 0 -161 21.5t-110 75t-63.5 142.5t-20.5 222v451h-137v137h297v-555q0 -84 7 -150.5t30 -112.5t67 -69.5t117 -23.5q106 0 185.5 69.5t119.5 173.5v531h-131v137z M660 1169h-113l-244 306h224z" />
<glyph unicode="&#xfa;" d="M743 1024h291v-698q0 -100 13 -193h137v-133h-273l-6 174h-8q-53 -88 -141 -143.5t-213 -55.5q-94 0 -161 21.5t-110 75t-63.5 142.5t-20.5 222v451h-137v137h297v-555q0 -84 7 -150.5t30 -112.5t67 -69.5t117 -23.5q106 0 185.5 69.5t119.5 173.5v531h-131v137z M582 1475h223l-244 -306h-113z" />
<glyph unicode="&#xfb;" d="M743 1024h291v-698q0 -100 13 -193h137v-133h-273l-6 174h-8q-53 -88 -141 -143.5t-213 -55.5q-94 0 -161 21.5t-110 75t-63.5 142.5t-20.5 222v451h-137v137h297v-555q0 -84 7 -150.5t30 -112.5t67 -69.5t117 -23.5q106 0 185.5 69.5t119.5 173.5v531h-131v137z M576 1499h76l276 -373h-160l-166 224l-176 -224h-143z" />
<glyph unicode="&#xfc;" d="M743 1024h291v-698q0 -100 13 -193h137v-133h-273l-6 174h-8q-53 -88 -141 -143.5t-213 -55.5q-94 0 -161 21.5t-110 75t-63.5 142.5t-20.5 222v451h-137v137h297v-555q0 -84 7 -150.5t30 -112.5t67 -69.5t117 -23.5q106 0 185.5 69.5t119.5 173.5v531h-131v137z M256 1321q0 53 32 87t85 34q51 0 84 -34t33 -87q0 -49 -33 -83t-84 -34q-53 0 -85 34t-32 83zM713 1321q0 53 31.5 87t83.5 34q53 0 87 -34t34 -87q0 -49 -34 -83t-87 -34q-51 0 -83 34t-32 83z" />
<glyph unicode="&#xfd;" d="M637 158h78l254 866h166l-285 -920q-23 -72 -46.5 -163t-66.5 -170.5t-116.5 -135t-192.5 -55.5q-27 0 -56.5 6t-58 15.5t-53 21.5t-37.5 25l58 147q12 -10 33.5 -20.5t47 -17.5t50 -12t41.5 -5q154 0 209 260h-138l-430 1024h185zM693 1475h223l-244 -306h-113z" />
<glyph unicode="&#xfe;" d="M197 1300h-154v134h311v-553q47 66 132 117t208 51q219 0 330 -121t111 -396q0 -129 -38 -232t-107.5 -175t-168 -111t-217.5 -39q-43 0 -76.5 3.5t-61.5 8.5t-54.5 13t-57.5 20v-430h-157v1710zM668 899q-61 0 -115.5 -22.5t-96.5 -59.5t-69 -82t-33 -90v-467 q45 -31 101.5 -48t148.5 -17q164 0 262.5 107.5t98.5 314.5q0 174 -68.5 269t-228.5 95z" />
<glyph unicode="&#xff;" d="M637 158h78l254 866h166l-285 -920q-23 -72 -46.5 -163t-66.5 -170.5t-116.5 -135t-192.5 -55.5q-27 0 -56.5 6t-58 15.5t-53 21.5t-37.5 25l58 147q12 -10 33.5 -20.5t47 -17.5t50 -12t41.5 -5q154 0 209 260h-138l-430 1024h185zM286 1321q0 53 32 87t85 34 q51 0 84 -34t33 -87q0 -49 -33 -83t-84 -34q-53 0 -85 34t-32 83zM743 1321q0 53 31.5 87t83.5 34q53 0 87 -34t34 -87q0 -49 -34 -83t-87 -34q-51 0 -83 34t-32 83z" />
<glyph unicode="&#x131;" d="M215 0v137h356v750h-356v137h520v-887h348v-137h-868z" />
<glyph unicode="&#x2c6;" d="M588 1499h76l276 -373h-160l-166 224l-176 -224h-143z" />
<glyph unicode="&#x2da;" d="M414 1317q0 86 54 136t144 50q86 0 143.5 -45t57.5 -141q0 -80 -57.5 -132t-143.5 -52t-142 48t-56 136zM524 1317q0 -41 27 -63.5t61 -22.5q39 0 64.5 20.5t25.5 65.5t-27.5 66.5t-62.5 21.5t-61.5 -20.5t-26.5 -67.5z" />
<glyph unicode="&#x2dc;" d="M299 1339q59 68 122.5 95.5t104.5 27.5q35 0 65 -13t57.5 -28.5t53 -28t54.5 -12.5q45 0 94 50l72 -91q-53 -59 -99.5 -80.5t-101.5 -19.5q-33 0 -61.5 13.5t-56.5 28.5t-55.5 27.5t-55.5 12.5q-27 0 -54.5 -14.5t-62.5 -49.5z" />
<glyph unicode="&#x2000;" horiz-adv-x="892" />
<glyph unicode="&#x2001;" horiz-adv-x="1784" />
<glyph unicode="&#x2002;" horiz-adv-x="892" />
<glyph unicode="&#x2003;" horiz-adv-x="1784" />
<glyph unicode="&#x2004;" horiz-adv-x="594" />
<glyph unicode="&#x2005;" horiz-adv-x="446" />
<glyph unicode="&#x2006;" horiz-adv-x="297" />
<glyph unicode="&#x2007;" horiz-adv-x="297" />
<glyph unicode="&#x2008;" horiz-adv-x="223" />
<glyph unicode="&#x2009;" horiz-adv-x="356" />
<glyph unicode="&#x200a;" horiz-adv-x="99" />
<glyph unicode="&#x2010;" d="M264 666h701v-152h-701v152z" />
<glyph unicode="&#x2011;" d="M264 666h701v-152h-701v152z" />
<glyph unicode="&#x2012;" d="M264 666h701v-152h-701v152z" />
<glyph unicode="&#x2013;" d="M180 666h869v-152h-869v152z" />
<glyph unicode="&#x2014;" d="M16 666h1196v-152h-1196v152z" />
<glyph unicode="&#x2018;" d="M754 1206q0 -55 -37 -88t-90 -33q-72 0 -115 43t-43 129q0 82 23.5 142.5t57.5 101.5t70.5 64.5t65.5 33.5l62 -83q-57 -29 -99.5 -74t-42.5 -115q8 2 25 2q47 0 85 -35t38 -88z" />
<glyph unicode="&#x2019;" d="M475 1391q0 55 37 87.5t90 32.5q72 0 115 -43t43 -129q0 -82 -23.5 -142t-57.5 -101t-71 -64.5t-65 -34.5l-62 84q57 29 99.5 74t42.5 115q-8 -2 -25 -2q-47 0 -85 35t-38 88z" />
<glyph unicode="&#x201a;" d="M475 80q0 55 37 88t90 33q72 0 115 -43t43 -129q0 -82 -23.5 -142.5t-57.5 -101.5t-71 -64.5t-65 -33.5l-62 84q57 29 99.5 73.5t42.5 114.5q-8 -2 -25 -2q-47 0 -85 35t-38 88z" />
<glyph unicode="&#x201c;" d="M549 1206q0 -55 -37 -88t-90 -33q-72 0 -115 43t-43 129q0 82 23.5 142.5t57.5 101.5t71 64.5t65 33.5l62 -83q-57 -29 -99.5 -74t-42.5 -115q8 2 25 2q47 0 85 -35t38 -88zM958 1206q0 -55 -36.5 -88t-90.5 -33q-72 0 -114.5 43t-42.5 129q0 82 23.5 142.5t57 101.5 t70.5 64.5t66 33.5l61 -83q-57 -29 -99 -74t-42 -115q8 2 25 2q47 0 84.5 -35t37.5 -88z" />
<glyph unicode="&#x201d;" d="M270 1391q0 55 37 87.5t90 32.5q72 0 115 -43t43 -129q0 -82 -23.5 -142t-57.5 -101t-70.5 -64.5t-65.5 -34.5l-62 84q57 29 99.5 74t42.5 115q-8 -2 -25 -2q-47 0 -85 35t-38 88zM680 1391q0 55 37 87.5t90 32.5q72 0 115 -43t43 -129q0 -82 -23.5 -142t-57.5 -101 t-71 -64.5t-65 -34.5l-62 84q57 29 99 74t42 115q-8 -2 -24 -2q-47 0 -85 35t-38 88z" />
<glyph unicode="&#x201e;" d="M270 80q0 55 37 88t90 33q72 0 115 -43t43 -129q0 -82 -23.5 -142.5t-57.5 -101.5t-70.5 -64.5t-65.5 -33.5l-62 84q57 29 99.5 73.5t42.5 114.5q-8 -2 -25 -2q-47 0 -85 35t-38 88zM680 80q0 55 37 88t90 33q72 0 115 -43t43 -129q0 -82 -23.5 -142.5t-57.5 -101.5 t-71 -64.5t-65 -33.5l-62 84q57 29 99 73.5t42 114.5q-8 -2 -24 -2q-47 0 -85 35t-38 88z" />
<glyph unicode="&#x2020;" d="M199 1028h333v406h164v-406h334v-147h-334v-881l-30 -410h-103l-31 412v879h-333v147z" />
<glyph unicode="&#x2021;" d="M532 881h-333v147h333v406h164v-406h334v-147h-334v-377h334v-148h-334v-356l-32 -410h-99l-33 412v354h-333v148h333v377z" />
<glyph unicode="&#x2022;" d="M330 637q0 63 22.5 115.5t60.5 90.5t90 58.5t111 20.5t111.5 -19.5t90.5 -56.5t60.5 -89t22.5 -120t-22.5 -120t-60.5 -89t-90 -56.5t-112 -19.5q-59 0 -111 19.5t-90 56.5t-60.5 89t-22.5 120z" />
<glyph unicode="&#x2026;" d="M997 113q0 66 37 101.5t98 35.5q66 0 103 -36t37 -101q0 -59 -37 -98.5t-103 -39.5q-61 0 -98 39.5t-37 98.5zM477 113q0 66 37 101.5t98 35.5q66 0 103 -36t37 -101q0 -59 -37 -98.5t-103 -39.5q-61 0 -98 39.5t-37 98.5zM-41 113q0 66 37 101.5t98 35.5q66 0 103 -36 t37 -101q0 -59 -37 -98.5t-103 -39.5q-61 0 -98 39.5t-37 98.5z" />
<glyph unicode="&#x202f;" horiz-adv-x="356" />
<glyph unicode="&#x2030;" d="M41 1151q0 162 62.5 234.5t158.5 72.5q47 0 87 -15.5t70 -51t47 -95t17 -145.5t-17 -144.5t-47 -94t-70 -51t-87 -15.5q-96 0 -158.5 67.5t-62.5 237.5zM164 1151q0 -111 27.5 -154t70.5 -43q45 0 71.5 39t26.5 158q0 115 -25.5 157t-72.5 42t-72.5 -42t-25.5 -157z M236 305q0 162 62 234.5t159 72.5q47 0 87 -15t69.5 -51t47 -95.5t17.5 -145.5t-17.5 -144.5t-47 -94t-69.5 -51t-87 -15.5q-96 0 -158.5 67.5t-62.5 237.5zM358 305q0 -111 28 -153.5t71 -42.5q45 0 71.5 38.5t26.5 157.5q0 115 -25.5 157t-72.5 42t-73 -42t-26 -157z M748 305q0 162 62 234.5t159 72.5q47 0 87 -15t69.5 -51t47 -95.5t17.5 -145.5t-17.5 -144.5t-47 -94t-69.5 -51t-87 -15.5q-96 0 -158.5 67.5t-62.5 237.5zM870 305q0 -111 28 -153.5t71 -42.5q45 0 71.5 38.5t26.5 157.5q0 115 -25.5 157t-72.5 42t-73 -42t-26 -157z M1044 1083l39 -96l-983 -430l-39 96z" />
<glyph unicode="&#x2039;" d="M348 541l400 520l118 -98l-319 -414l334 -408l-117 -100z" />
<glyph unicode="&#x203a;" d="M465 41l-117 100l334 408l-320 414l119 98l400 -520z" />
<glyph unicode="&#x2044;" d="M1059 1460l106 -71l-997 -1414l-107 74z" />
<glyph unicode="&#x205f;" horiz-adv-x="446" />
<glyph unicode="&#x2081;" d="M274 -80h299v563l-256 -143l-55 113l340 202h115v-735h276v-125h-719v125z" />
<glyph unicode="&#x2082;" d="M911 399q0 -76 -42 -144.5t-109.5 -128.5t-149.5 -111.5t-161 -90.5h503v-129h-719v109q33 27 84.5 59.5t110.5 69.5t119.5 79t110 86t80 90t30.5 93q0 43 -17.5 72.5t-44 49t-58.5 28t-62 8.5q-47 0 -87 -11.5t-74 -28t-60.5 -36t-42.5 -33.5l-66 100q18 18 51 42 t78 45.5t102.5 37t122.5 15.5q63 0 118.5 -17.5t95.5 -51.5t63.5 -84t23.5 -118z" />
<glyph unicode="&#x2083;" d="M537 -96q98 0 155.5 39t57.5 114q0 66 -48.5 107t-152.5 41h-133v78l266 249h-467v123h647v-108l-264 -236v-4q137 -2 216 -70.5t79 -179.5q0 -125 -96.5 -200.5t-278.5 -75.5q-49 0 -104.5 11t-106.5 31.5t-94 49.5t-68 64l74 106q14 -16 43 -39.5t69 -46.5t91.5 -38 t114.5 -15z" />
<glyph unicode="&#x2122;" d="M530 1307h-174v-611h-137v611h-172v127h483v-127zM1057 1038l8 211h-8l-166 -317h-31l-168 317h-6l14 -209v-344h-120v738h135l168 -295l161 295h136v-738h-123v342z" />
<glyph unicode="&#x2212;" d="M139 766h951v-148h-951v148z" />
<glyph unicode="&#x25ca;" d="M645 -23h-67l-410 723l410 756h67l416 -745zM891 690l-281 516h-4l-266 -483l283 -516h2z" />
<glyph unicode="&#x25fc;" horiz-adv-x="1024" d="M0 1024h1024v-1024h-1024v1024z" />
<glyph unicode="&#xf408;" d="M559 1784h123l297 -252h-203l-158 133l-169 -133h-207z" />
<glyph unicode="&#xf40d;" d="M264 1616q63 66 130 85t116 19q39 0 76 -10t70.5 -23.5t66.5 -23.5t63 -10q53 0 103 43l59 -101q-55 -51 -108.5 -64t-96.5 -13q-39 0 -73.5 10t-68.5 23.5t-66.5 23.5t-65.5 10t-64.5 -13t-66.5 -48z" />
<glyph unicode="&#xf6c9;" d="M618 1782h234v-43l-334 -199h-141z" />
<glyph unicode="&#xf6cb;" d="M258 1638q0 47 36 77t93 30q53 0 89 -29.5t36 -77.5q0 -47 -36 -75.5t-89 -28.5q-57 0 -93 28.5t-36 75.5zM719 1638q0 47 34.5 77t88.5 30q59 0 94 -29.5t35 -77.5q0 -47 -35 -75.5t-94 -28.5q-53 0 -88 28.5t-35 75.5z" />
<glyph unicode="&#xf6ce;" d="M852 1540h-152l-323 199v43h233z" />
<glyph unicode="&#xfb01;" d="M1065 1024v-1024h-164v881h-516v-881h-164v881h-160v143h160v57q0 94 31 164t86 115t131 66.5t168 21.5q59 0 122.5 -6t122 -17.5t105.5 -26t74 -30.5l-55 -131q-29 18 -71 30.5t-91 20.5t-99.5 12.5t-93.5 4.5q-76 0 -127 -18.5t-81.5 -53.5t-44 -88t-13.5 -121h680z " />
<glyph unicode="&#xfb02;" d="M815 1298q-31 6 -88 11.5t-113 5.5q-139 0 -190 -77t-51 -214h211v-143h-211v-881h-164v881h-160v143h160v57q0 193 103.5 285t297.5 92q41 0 92.5 -3t103.5 -8t98 -11t75 -15v-1169q0 -72 25.5 -102.5t68.5 -30.5q29 0 59.5 4t69.5 18l17 -129q-16 -8 -40 -15t-50.5 -11 t-53 -7.5t-47.5 -3.5q-92 0 -152.5 52.5t-60.5 177.5v1093z" />
</font>
</defs>
</svg>
